<svg xmlns="http://www.w3.org/2000/svg" width="920" height="2203" viewBox="0 0 920 2203">
<style>text{font-family:Arial,Helvetica,sans-serif;fill:#222}.title{font-size:18px;font-weight:700}.label{font-size:12px}.small{font-size:10px}.axis{stroke:#555;stroke-width:1}.grid{stroke:#ddd;stroke-width:1}</style>
<rect x="0" y="0" width="100%" height="100%" fill="white"/>
<text x="230.00" y="30.00" text-anchor="start" class="title">Diversity delta from base</text>
<text x="20.00" y="70.00" text-anchor="start" class="label">high temp</text>
<line x1="540.00" y1="50.00" x2="540.00" y2="721.00" stroke="#555" stroke-width="1.00" stroke-opacity="1.000"/>
<line x1="230.00" y1="50.00" x2="850.00" y2="50.00" stroke="#ddd" stroke-width="1.00" stroke-opacity="1.000"/>
<text x="230.00" y="44.00" text-anchor="start" class="small">-0.080</text>
<text x="540.00" y="44.00" text-anchor="middle" class="small">0</text>
<text x="850.00" y="44.00" text-anchor="end" class="small">+0.080</text>
<text x="222.00" y="67.00" text-anchor="end" class="small">organize_condiments</text>
<rect x="450.28" y="60.00" width="89.72" height="9.00" fill="#e45756" stroke="none" fill-opacity="0.780"/>
<text x="222.00" y="80.00" text-anchor="end" class="small">bowl_and_cup</text>
<rect x="493.59" y="73.00" width="46.41" height="9.00" fill="#e45756" stroke="none" fill-opacity="0.780"/>
<text x="222.00" y="93.00" text-anchor="end" class="small">meat_skewer_assembly</text>
<rect x="503.72" y="86.00" width="36.28" height="9.00" fill="#e45756" stroke="none" fill-opacity="0.780"/>
<text x="222.00" y="106.00" text-anchor="end" class="small">setup_bowls</text>
<rect x="525.92" y="99.00" width="14.08" height="9.00" fill="#e45756" stroke="none" fill-opacity="0.780"/>
<text x="222.00" y="119.00" text-anchor="end" class="small">sweeten_coffee</text>
<rect x="527.69" y="112.00" width="12.31" height="9.00" fill="#e45756" stroke="none" fill-opacity="0.780"/>
<text x="222.00" y="132.00" text-anchor="end" class="small">serve_meal_juice</text>
<rect x="530.99" y="125.00" width="9.01" height="9.00" fill="#e45756" stroke="none" fill-opacity="0.780"/>
<text x="222.00" y="145.00" text-anchor="end" class="small">garnish_pancake</text>
<rect x="531.39" y="138.00" width="8.61" height="9.00" fill="#e45756" stroke="none" fill-opacity="0.780"/>
<text x="222.00" y="158.00" text-anchor="end" class="small">tong_buffet_setup</text>
<rect x="534.76" y="151.00" width="5.24" height="9.00" fill="#e45756" stroke="none" fill-opacity="0.780"/>
<text x="222.00" y="171.00" text-anchor="end" class="small">set_bowls_for_soup</text>
<rect x="536.45" y="164.00" width="3.55" height="9.00" fill="#e45756" stroke="none" fill-opacity="0.780"/>
<text x="222.00" y="184.00" text-anchor="end" class="small">line_up_condiments</text>
<rect x="536.77" y="177.00" width="3.23" height="9.00" fill="#e45756" stroke="none" fill-opacity="0.780"/>
<text x="222.00" y="197.00" text-anchor="end" class="small">add_lemon_to_fish</text>
<rect x="537.62" y="190.00" width="2.38" height="9.00" fill="#e45756" stroke="none" fill-opacity="0.780"/>
<text x="222.00" y="210.00" text-anchor="end" class="small">prepare_sausage_cheese</text>
<rect x="540.00" y="203.00" width="2.27" height="9.00" fill="#54a24b" stroke="none" fill-opacity="0.780"/>
<text x="222.00" y="223.00" text-anchor="end" class="small">set_up_spice_station</text>
<rect x="540.00" y="216.00" width="3.38" height="9.00" fill="#54a24b" stroke="none" fill-opacity="0.780"/>
<text x="222.00" y="236.00" text-anchor="end" class="small">alcohol_serving_prep</text>
<rect x="540.00" y="229.00" width="4.30" height="9.00" fill="#54a24b" stroke="none" fill-opacity="0.780"/>
<text x="222.00" y="249.00" text-anchor="end" class="small">cut_buffet_pizza</text>
<rect x="540.00" y="242.00" width="6.30" height="9.00" fill="#54a24b" stroke="none" fill-opacity="0.780"/>
<text x="222.00" y="262.00" text-anchor="end" class="small">prepare_cocktail_station</text>
<rect x="540.00" y="255.00" width="7.24" height="9.00" fill="#54a24b" stroke="none" fill-opacity="0.780"/>
<text x="222.00" y="275.00" text-anchor="end" class="small">portion_hot_dogs</text>
<rect x="540.00" y="268.00" width="7.34" height="9.00" fill="#54a24b" stroke="none" fill-opacity="0.780"/>
<text x="222.00" y="288.00" text-anchor="end" class="small">prepare_cheese_station</text>
<rect x="540.00" y="281.00" width="8.14" height="9.00" fill="#54a24b" stroke="none" fill-opacity="0.780"/>
<text x="222.00" y="301.00" text-anchor="end" class="small">setup_butter_plate</text>
<rect x="540.00" y="294.00" width="9.53" height="9.00" fill="#54a24b" stroke="none" fill-opacity="0.780"/>
<text x="222.00" y="314.00" text-anchor="end" class="small">arrange_bread_bowl</text>
<rect x="540.00" y="307.00" width="10.83" height="9.00" fill="#54a24b" stroke="none" fill-opacity="0.780"/>
<text x="222.00" y="327.00" text-anchor="end" class="small">deliver_straw</text>
<rect x="540.00" y="320.00" width="11.03" height="9.00" fill="#54a24b" stroke="none" fill-opacity="0.780"/>
<text x="222.00" y="340.00" text-anchor="end" class="small">dessert_assembly</text>
<rect x="540.00" y="333.00" width="11.52" height="9.00" fill="#54a24b" stroke="none" fill-opacity="0.780"/>
<text x="222.00" y="353.00" text-anchor="end" class="small">colorful_salsa</text>
<rect x="540.00" y="346.00" width="12.33" height="9.00" fill="#54a24b" stroke="none" fill-opacity="0.780"/>
<text x="222.00" y="366.00" text-anchor="end" class="small">distribute_chicken</text>
<rect x="540.00" y="359.00" width="14.56" height="9.00" fill="#54a24b" stroke="none" fill-opacity="0.780"/>
<text x="222.00" y="379.00" text-anchor="end" class="small">prepare_drink_station</text>
<rect x="540.00" y="372.00" width="15.20" height="9.00" fill="#54a24b" stroke="none" fill-opacity="0.780"/>
<text x="222.00" y="392.00" text-anchor="end" class="small">garnish_cupcake</text>
<rect x="540.00" y="385.00" width="15.97" height="9.00" fill="#54a24b" stroke="none" fill-opacity="0.780"/>
<text x="222.00" y="405.00" text-anchor="end" class="small">seasoning_steak</text>
<rect x="540.00" y="398.00" width="16.23" height="9.00" fill="#54a24b" stroke="none" fill-opacity="0.780"/>
<text x="222.00" y="418.00" text-anchor="end" class="small">arrange_tea</text>
<rect x="540.00" y="411.00" width="18.77" height="9.00" fill="#54a24b" stroke="none" fill-opacity="0.780"/>
<text x="222.00" y="431.00" text-anchor="end" class="small">gather_marinade_ingredients</text>
<rect x="540.00" y="424.00" width="19.04" height="9.00" fill="#54a24b" stroke="none" fill-opacity="0.780"/>
<text x="222.00" y="444.00" text-anchor="end" class="small">lemon_seasoning_fish</text>
<rect x="540.00" y="437.00" width="20.22" height="9.00" fill="#54a24b" stroke="none" fill-opacity="0.780"/>
<text x="222.00" y="457.00" text-anchor="end" class="small">hot_dog_setup</text>
<rect x="540.00" y="450.00" width="22.48" height="9.00" fill="#54a24b" stroke="none" fill-opacity="0.780"/>
<text x="222.00" y="470.00" text-anchor="end" class="small">serve_steak</text>
<rect x="540.00" y="463.00" width="22.61" height="9.00" fill="#54a24b" stroke="none" fill-opacity="0.780"/>
<text x="222.00" y="483.00" text-anchor="end" class="small">cheese_mixing</text>
<rect x="540.00" y="476.00" width="22.70" height="9.00" fill="#54a24b" stroke="none" fill-opacity="0.780"/>
<text x="222.00" y="496.00" text-anchor="end" class="small">date_night</text>
<rect x="540.00" y="489.00" width="23.86" height="9.00" fill="#54a24b" stroke="none" fill-opacity="0.780"/>
<text x="222.00" y="509.00" text-anchor="end" class="small">setup_wine_glasses</text>
<rect x="540.00" y="502.00" width="24.09" height="9.00" fill="#54a24b" stroke="none" fill-opacity="0.780"/>
<text x="222.00" y="522.00" text-anchor="end" class="small">display_meat_variety</text>
<rect x="540.00" y="515.00" width="27.33" height="9.00" fill="#54a24b" stroke="none" fill-opacity="0.780"/>
<text x="222.00" y="535.00" text-anchor="end" class="small">arrange_drinkware</text>
<rect x="540.00" y="528.00" width="30.30" height="9.00" fill="#54a24b" stroke="none" fill-opacity="0.780"/>
<text x="222.00" y="548.00" text-anchor="end" class="small">setup_soda_bowl</text>
<rect x="540.00" y="541.00" width="32.17" height="9.00" fill="#54a24b" stroke="none" fill-opacity="0.780"/>
<text x="222.00" y="561.00" text-anchor="end" class="small">align_silverware</text>
<rect x="540.00" y="554.00" width="35.37" height="9.00" fill="#54a24b" stroke="none" fill-opacity="0.780"/>
<text x="222.00" y="574.00" text-anchor="end" class="small">garnish_cake</text>
<rect x="540.00" y="567.00" width="42.85" height="9.00" fill="#54a24b" stroke="none" fill-opacity="0.780"/>
<text x="222.00" y="587.00" text-anchor="end" class="small">veggie_dip_prep</text>
<rect x="540.00" y="580.00" width="43.71" height="9.00" fill="#54a24b" stroke="none" fill-opacity="0.780"/>
<text x="222.00" y="600.00" text-anchor="end" class="small">plate_store_dinner</text>
<rect x="540.00" y="593.00" width="44.02" height="9.00" fill="#54a24b" stroke="none" fill-opacity="0.780"/>
<text x="222.00" y="613.00" text-anchor="end" class="small">portion_yogurt</text>
<rect x="540.00" y="606.00" width="46.16" height="9.00" fill="#54a24b" stroke="none" fill-opacity="0.780"/>
<text x="222.00" y="626.00" text-anchor="end" class="small">cluster_items_for_clearing</text>
<rect x="540.00" y="619.00" width="49.93" height="9.00" fill="#54a24b" stroke="none" fill-opacity="0.780"/>
<text x="222.00" y="639.00" text-anchor="end" class="small">add_sugar_cubes</text>
<rect x="540.00" y="632.00" width="52.33" height="9.00" fill="#54a24b" stroke="none" fill-opacity="0.780"/>
<text x="222.00" y="652.00" text-anchor="end" class="small">match_cup_and_drink</text>
<rect x="540.00" y="645.00" width="53.66" height="9.00" fill="#54a24b" stroke="none" fill-opacity="0.780"/>
<text x="222.00" y="665.00" text-anchor="end" class="small">condiment_collection</text>
<rect x="540.00" y="658.00" width="59.41" height="9.00" fill="#54a24b" stroke="none" fill-opacity="0.780"/>
<text x="222.00" y="678.00" text-anchor="end" class="small">candle_cleanup</text>
<rect x="540.00" y="671.00" width="61.05" height="9.00" fill="#54a24b" stroke="none" fill-opacity="0.780"/>
<text x="222.00" y="691.00" text-anchor="end" class="small">beverage_organization</text>
<rect x="540.00" y="684.00" width="80.27" height="9.00" fill="#54a24b" stroke="none" fill-opacity="0.780"/>
<text x="222.00" y="704.00" text-anchor="end" class="small">prepare_soup_serving</text>
<rect x="540.00" y="697.00" width="82.23" height="9.00" fill="#54a24b" stroke="none" fill-opacity="0.780"/>
<text x="222.00" y="717.00" text-anchor="end" class="small">spicy_marinade</text>
<rect x="540.00" y="710.00" width="87.05" height="9.00" fill="#54a24b" stroke="none" fill-opacity="0.780"/>
<text x="20.00" y="775.00" text-anchor="start" class="label">random</text>
<line x1="540.00" y1="755.00" x2="540.00" y2="1426.00" stroke="#555" stroke-width="1.00" stroke-opacity="1.000"/>
<line x1="230.00" y1="755.00" x2="850.00" y2="755.00" stroke="#ddd" stroke-width="1.00" stroke-opacity="1.000"/>
<text x="230.00" y="749.00" text-anchor="start" class="small">-0.080</text>
<text x="540.00" y="749.00" text-anchor="middle" class="small">0</text>
<text x="850.00" y="749.00" text-anchor="end" class="small">+0.080</text>
<text x="222.00" y="772.00" text-anchor="end" class="small">portion_hot_dogs</text>
<rect x="486.38" y="765.00" width="53.62" height="9.00" fill="#e45756" stroke="none" fill-opacity="0.780"/>
<text x="222.00" y="785.00" text-anchor="end" class="small">dessert_assembly</text>
<rect x="487.27" y="778.00" width="52.73" height="9.00" fill="#e45756" stroke="none" fill-opacity="0.780"/>
<text x="222.00" y="798.00" text-anchor="end" class="small">organize_condiments</text>
<rect x="500.04" y="791.00" width="39.96" height="9.00" fill="#e45756" stroke="none" fill-opacity="0.780"/>
<text x="222.00" y="811.00" text-anchor="end" class="small">serve_meal_juice</text>
<rect x="501.95" y="804.00" width="38.05" height="9.00" fill="#e45756" stroke="none" fill-opacity="0.780"/>
<text x="222.00" y="824.00" text-anchor="end" class="small">colorful_salsa</text>
<rect x="505.69" y="817.00" width="34.31" height="9.00" fill="#e45756" stroke="none" fill-opacity="0.780"/>
<text x="222.00" y="837.00" text-anchor="end" class="small">deliver_straw</text>
<rect x="515.45" y="830.00" width="24.55" height="9.00" fill="#e45756" stroke="none" fill-opacity="0.780"/>
<text x="222.00" y="850.00" text-anchor="end" class="small">garnish_cupcake</text>
<rect x="519.93" y="843.00" width="20.07" height="9.00" fill="#e45756" stroke="none" fill-opacity="0.780"/>
<text x="222.00" y="863.00" text-anchor="end" class="small">gather_marinade_ingredients</text>
<rect x="520.74" y="856.00" width="19.26" height="9.00" fill="#e45756" stroke="none" fill-opacity="0.780"/>
<text x="222.00" y="876.00" text-anchor="end" class="small">garnish_pancake</text>
<rect x="521.30" y="869.00" width="18.70" height="9.00" fill="#e45756" stroke="none" fill-opacity="0.780"/>
<text x="222.00" y="889.00" text-anchor="end" class="small">date_night</text>
<rect x="525.51" y="882.00" width="14.49" height="9.00" fill="#e45756" stroke="none" fill-opacity="0.780"/>
<text x="222.00" y="902.00" text-anchor="end" class="small">arrange_tea</text>
<rect x="525.59" y="895.00" width="14.41" height="9.00" fill="#e45756" stroke="none" fill-opacity="0.780"/>
<text x="222.00" y="915.00" text-anchor="end" class="small">add_lemon_to_fish</text>
<rect x="525.80" y="908.00" width="14.20" height="9.00" fill="#e45756" stroke="none" fill-opacity="0.780"/>
<text x="222.00" y="928.00" text-anchor="end" class="small">prepare_drink_station</text>
<rect x="529.91" y="921.00" width="10.09" height="9.00" fill="#e45756" stroke="none" fill-opacity="0.780"/>
<text x="222.00" y="941.00" text-anchor="end" class="small">prepare_cocktail_station</text>
<rect x="530.55" y="934.00" width="9.45" height="9.00" fill="#e45756" stroke="none" fill-opacity="0.780"/>
<text x="222.00" y="954.00" text-anchor="end" class="small">cheese_mixing</text>
<rect x="533.30" y="947.00" width="6.70" height="9.00" fill="#e45756" stroke="none" fill-opacity="0.780"/>
<text x="222.00" y="967.00" text-anchor="end" class="small">setup_wine_glasses</text>
<rect x="535.49" y="960.00" width="4.51" height="9.00" fill="#e45756" stroke="none" fill-opacity="0.780"/>
<text x="222.00" y="980.00" text-anchor="end" class="small">line_up_condiments</text>
<rect x="536.11" y="973.00" width="3.89" height="9.00" fill="#e45756" stroke="none" fill-opacity="0.780"/>
<text x="222.00" y="993.00" text-anchor="end" class="small">sweeten_coffee</text>
<rect x="537.27" y="986.00" width="2.73" height="9.00" fill="#e45756" stroke="none" fill-opacity="0.780"/>
<text x="222.00" y="1006.00" text-anchor="end" class="small">meat_skewer_assembly</text>
<rect x="537.93" y="999.00" width="2.07" height="9.00" fill="#e45756" stroke="none" fill-opacity="0.780"/>
<text x="222.00" y="1019.00" text-anchor="end" class="small">lemon_seasoning_fish</text>
<rect x="538.86" y="1012.00" width="1.14" height="9.00" fill="#e45756" stroke="none" fill-opacity="0.780"/>
<text x="222.00" y="1032.00" text-anchor="end" class="small">set_bowls_for_soup</text>
<rect x="539.27" y="1025.00" width="1.00" height="9.00" fill="#e45756" stroke="none" fill-opacity="0.780"/>
<text x="222.00" y="1045.00" text-anchor="end" class="small">distribute_chicken</text>
<rect x="539.43" y="1038.00" width="1.00" height="9.00" fill="#e45756" stroke="none" fill-opacity="0.780"/>
<text x="222.00" y="1058.00" text-anchor="end" class="small">veggie_dip_prep</text>
<rect x="540.00" y="1051.00" width="1.00" height="9.00" fill="#54a24b" stroke="none" fill-opacity="0.780"/>
<text x="222.00" y="1071.00" text-anchor="end" class="small">garnish_cake</text>
<rect x="540.00" y="1064.00" width="1.46" height="9.00" fill="#54a24b" stroke="none" fill-opacity="0.780"/>
<text x="222.00" y="1084.00" text-anchor="end" class="small">prepare_sausage_cheese</text>
<rect x="540.00" y="1077.00" width="1.52" height="9.00" fill="#54a24b" stroke="none" fill-opacity="0.780"/>
<text x="222.00" y="1097.00" text-anchor="end" class="small">cut_buffet_pizza</text>
<rect x="540.00" y="1090.00" width="1.67" height="9.00" fill="#54a24b" stroke="none" fill-opacity="0.780"/>
<text x="222.00" y="1110.00" text-anchor="end" class="small">set_up_spice_station</text>
<rect x="540.00" y="1103.00" width="2.43" height="9.00" fill="#54a24b" stroke="none" fill-opacity="0.780"/>
<text x="222.00" y="1123.00" text-anchor="end" class="small">arrange_bread_bowl</text>
<rect x="540.00" y="1116.00" width="2.52" height="9.00" fill="#54a24b" stroke="none" fill-opacity="0.780"/>
<text x="222.00" y="1136.00" text-anchor="end" class="small">plate_store_dinner</text>
<rect x="540.00" y="1129.00" width="4.52" height="9.00" fill="#54a24b" stroke="none" fill-opacity="0.780"/>
<text x="222.00" y="1149.00" text-anchor="end" class="small">hot_dog_setup</text>
<rect x="540.00" y="1142.00" width="5.75" height="9.00" fill="#54a24b" stroke="none" fill-opacity="0.780"/>
<text x="222.00" y="1162.00" text-anchor="end" class="small">seasoning_steak</text>
<rect x="540.00" y="1155.00" width="9.88" height="9.00" fill="#54a24b" stroke="none" fill-opacity="0.780"/>
<text x="222.00" y="1175.00" text-anchor="end" class="small">candle_cleanup</text>
<rect x="540.00" y="1168.00" width="13.58" height="9.00" fill="#54a24b" stroke="none" fill-opacity="0.780"/>
<text x="222.00" y="1188.00" text-anchor="end" class="small">serve_steak</text>
<rect x="540.00" y="1181.00" width="13.91" height="9.00" fill="#54a24b" stroke="none" fill-opacity="0.780"/>
<text x="222.00" y="1201.00" text-anchor="end" class="small">setup_soda_bowl</text>
<rect x="540.00" y="1194.00" width="14.27" height="9.00" fill="#54a24b" stroke="none" fill-opacity="0.780"/>
<text x="222.00" y="1214.00" text-anchor="end" class="small">tong_buffet_setup</text>
<rect x="540.00" y="1207.00" width="16.15" height="9.00" fill="#54a24b" stroke="none" fill-opacity="0.780"/>
<text x="222.00" y="1227.00" text-anchor="end" class="small">spicy_marinade</text>
<rect x="540.00" y="1220.00" width="16.72" height="9.00" fill="#54a24b" stroke="none" fill-opacity="0.780"/>
<text x="222.00" y="1240.00" text-anchor="end" class="small">add_sugar_cubes</text>
<rect x="540.00" y="1233.00" width="17.86" height="9.00" fill="#54a24b" stroke="none" fill-opacity="0.780"/>
<text x="222.00" y="1253.00" text-anchor="end" class="small">setup_butter_plate</text>
<rect x="540.00" y="1246.00" width="17.99" height="9.00" fill="#54a24b" stroke="none" fill-opacity="0.780"/>
<text x="222.00" y="1266.00" text-anchor="end" class="small">prepare_cheese_station</text>
<rect x="540.00" y="1259.00" width="19.84" height="9.00" fill="#54a24b" stroke="none" fill-opacity="0.780"/>
<text x="222.00" y="1279.00" text-anchor="end" class="small">setup_bowls</text>
<rect x="540.00" y="1272.00" width="20.94" height="9.00" fill="#54a24b" stroke="none" fill-opacity="0.780"/>
<text x="222.00" y="1292.00" text-anchor="end" class="small">beverage_organization</text>
<rect x="540.00" y="1285.00" width="21.77" height="9.00" fill="#54a24b" stroke="none" fill-opacity="0.780"/>
<text x="222.00" y="1305.00" text-anchor="end" class="small">alcohol_serving_prep</text>
<rect x="540.00" y="1298.00" width="25.96" height="9.00" fill="#54a24b" stroke="none" fill-opacity="0.780"/>
<text x="222.00" y="1318.00" text-anchor="end" class="small">match_cup_and_drink</text>
<rect x="540.00" y="1311.00" width="27.59" height="9.00" fill="#54a24b" stroke="none" fill-opacity="0.780"/>
<text x="222.00" y="1331.00" text-anchor="end" class="small">bowl_and_cup</text>
<rect x="540.00" y="1324.00" width="31.75" height="9.00" fill="#54a24b" stroke="none" fill-opacity="0.780"/>
<text x="222.00" y="1344.00" text-anchor="end" class="small">cluster_items_for_clearing</text>
<rect x="540.00" y="1337.00" width="38.40" height="9.00" fill="#54a24b" stroke="none" fill-opacity="0.780"/>
<text x="222.00" y="1357.00" text-anchor="end" class="small">condiment_collection</text>
<rect x="540.00" y="1350.00" width="39.18" height="9.00" fill="#54a24b" stroke="none" fill-opacity="0.780"/>
<text x="222.00" y="1370.00" text-anchor="end" class="small">display_meat_variety</text>
<rect x="540.00" y="1363.00" width="40.62" height="9.00" fill="#54a24b" stroke="none" fill-opacity="0.780"/>
<text x="222.00" y="1383.00" text-anchor="end" class="small">arrange_drinkware</text>
<rect x="540.00" y="1376.00" width="45.72" height="9.00" fill="#54a24b" stroke="none" fill-opacity="0.780"/>
<text x="222.00" y="1396.00" text-anchor="end" class="small">align_silverware</text>
<rect x="540.00" y="1389.00" width="47.31" height="9.00" fill="#54a24b" stroke="none" fill-opacity="0.780"/>
<text x="222.00" y="1409.00" text-anchor="end" class="small">prepare_soup_serving</text>
<rect x="540.00" y="1402.00" width="50.31" height="9.00" fill="#54a24b" stroke="none" fill-opacity="0.780"/>
<text x="222.00" y="1422.00" text-anchor="end" class="small">portion_yogurt</text>
<rect x="540.00" y="1415.00" width="84.04" height="9.00" fill="#54a24b" stroke="none" fill-opacity="0.780"/>
<text x="20.00" y="1480.00" text-anchor="start" class="label">verbalized</text>
<line x1="540.00" y1="1460.00" x2="540.00" y2="2131.00" stroke="#555" stroke-width="1.00" stroke-opacity="1.000"/>
<line x1="230.00" y1="1460.00" x2="850.00" y2="1460.00" stroke="#ddd" stroke-width="1.00" stroke-opacity="1.000"/>
<text x="230.00" y="1454.00" text-anchor="start" class="small">-0.080</text>
<text x="540.00" y="1454.00" text-anchor="middle" class="small">0</text>
<text x="850.00" y="1454.00" text-anchor="end" class="small">+0.080</text>
<text x="222.00" y="1477.00" text-anchor="end" class="small">organize_condiments</text>
<rect x="508.38" y="1470.00" width="31.62" height="9.00" fill="#e45756" stroke="none" fill-opacity="0.780"/>
<text x="222.00" y="1490.00" text-anchor="end" class="small">set_bowls_for_soup</text>
<rect x="538.45" y="1483.00" width="1.55" height="9.00" fill="#e45756" stroke="none" fill-opacity="0.780"/>
<text x="222.00" y="1503.00" text-anchor="end" class="small">cheese_mixing</text>
<rect x="539.46" y="1496.00" width="1.00" height="9.00" fill="#e45756" stroke="none" fill-opacity="0.780"/>
<text x="222.00" y="1516.00" text-anchor="end" class="small">alcohol_serving_prep</text>
<rect x="540.00" y="1509.00" width="11.06" height="9.00" fill="#54a24b" stroke="none" fill-opacity="0.780"/>
<text x="222.00" y="1529.00" text-anchor="end" class="small">setup_soda_bowl</text>
<rect x="540.00" y="1522.00" width="14.84" height="9.00" fill="#54a24b" stroke="none" fill-opacity="0.780"/>
<text x="222.00" y="1542.00" text-anchor="end" class="small">plate_store_dinner</text>
<rect x="540.00" y="1535.00" width="15.05" height="9.00" fill="#54a24b" stroke="none" fill-opacity="0.780"/>
<text x="222.00" y="1555.00" text-anchor="end" class="small">hot_dog_setup</text>
<rect x="540.00" y="1548.00" width="25.54" height="9.00" fill="#54a24b" stroke="none" fill-opacity="0.780"/>
<text x="222.00" y="1568.00" text-anchor="end" class="small">set_up_spice_station</text>
<rect x="540.00" y="1561.00" width="26.92" height="9.00" fill="#54a24b" stroke="none" fill-opacity="0.780"/>
<text x="222.00" y="1581.00" text-anchor="end" class="small">bowl_and_cup</text>
<rect x="540.00" y="1574.00" width="31.18" height="9.00" fill="#54a24b" stroke="none" fill-opacity="0.780"/>
<text x="222.00" y="1594.00" text-anchor="end" class="small">prepare_drink_station</text>
<rect x="540.00" y="1587.00" width="31.86" height="9.00" fill="#54a24b" stroke="none" fill-opacity="0.780"/>
<text x="222.00" y="1607.00" text-anchor="end" class="small">arrange_tea</text>
<rect x="540.00" y="1600.00" width="32.62" height="9.00" fill="#54a24b" stroke="none" fill-opacity="0.780"/>
<text x="222.00" y="1620.00" text-anchor="end" class="small">prepare_cocktail_station</text>
<rect x="540.00" y="1613.00" width="33.94" height="9.00" fill="#54a24b" stroke="none" fill-opacity="0.780"/>
<text x="222.00" y="1633.00" text-anchor="end" class="small">setup_wine_glasses</text>
<rect x="540.00" y="1626.00" width="40.61" height="9.00" fill="#54a24b" stroke="none" fill-opacity="0.780"/>
<text x="222.00" y="1646.00" text-anchor="end" class="small">arrange_bread_bowl</text>
<rect x="540.00" y="1639.00" width="44.46" height="9.00" fill="#54a24b" stroke="none" fill-opacity="0.780"/>
<text x="222.00" y="1659.00" text-anchor="end" class="small">tong_buffet_setup</text>
<rect x="540.00" y="1652.00" width="52.81" height="9.00" fill="#54a24b" stroke="none" fill-opacity="0.780"/>
<text x="222.00" y="1672.00" text-anchor="end" class="small">date_night</text>
<rect x="540.00" y="1665.00" width="53.48" height="9.00" fill="#54a24b" stroke="none" fill-opacity="0.780"/>
<text x="222.00" y="1685.00" text-anchor="end" class="small">serve_meal_juice</text>
<rect x="540.00" y="1678.00" width="53.60" height="9.00" fill="#54a24b" stroke="none" fill-opacity="0.780"/>
<text x="222.00" y="1698.00" text-anchor="end" class="small">gather_marinade_ingredients</text>
<rect x="540.00" y="1691.00" width="61.05" height="9.00" fill="#54a24b" stroke="none" fill-opacity="0.780"/>
<text x="222.00" y="1711.00" text-anchor="end" class="small">condiment_collection</text>
<rect x="540.00" y="1704.00" width="61.56" height="9.00" fill="#54a24b" stroke="none" fill-opacity="0.780"/>
<text x="222.00" y="1724.00" text-anchor="end" class="small">cut_buffet_pizza</text>
<rect x="540.00" y="1717.00" width="61.99" height="9.00" fill="#54a24b" stroke="none" fill-opacity="0.780"/>
<text x="222.00" y="1737.00" text-anchor="end" class="small">deliver_straw</text>
<rect x="540.00" y="1730.00" width="62.34" height="9.00" fill="#54a24b" stroke="none" fill-opacity="0.780"/>
<text x="222.00" y="1750.00" text-anchor="end" class="small">setup_bowls</text>
<rect x="540.00" y="1743.00" width="64.25" height="9.00" fill="#54a24b" stroke="none" fill-opacity="0.780"/>
<text x="222.00" y="1763.00" text-anchor="end" class="small">serve_steak</text>
<rect x="540.00" y="1756.00" width="64.55" height="9.00" fill="#54a24b" stroke="none" fill-opacity="0.780"/>
<text x="222.00" y="1776.00" text-anchor="end" class="small">garnish_pancake</text>
<rect x="540.00" y="1769.00" width="65.04" height="9.00" fill="#54a24b" stroke="none" fill-opacity="0.780"/>
<text x="222.00" y="1789.00" text-anchor="end" class="small">match_cup_and_drink</text>
<rect x="540.00" y="1782.00" width="65.73" height="9.00" fill="#54a24b" stroke="none" fill-opacity="0.780"/>
<text x="222.00" y="1802.00" text-anchor="end" class="small">align_silverware</text>
<rect x="540.00" y="1795.00" width="69.60" height="9.00" fill="#54a24b" stroke="none" fill-opacity="0.780"/>
<text x="222.00" y="1815.00" text-anchor="end" class="small">sweeten_coffee</text>
<rect x="540.00" y="1808.00" width="69.79" height="9.00" fill="#54a24b" stroke="none" fill-opacity="0.780"/>
<text x="222.00" y="1828.00" text-anchor="end" class="small">prepare_soup_serving</text>
<rect x="540.00" y="1821.00" width="72.76" height="9.00" fill="#54a24b" stroke="none" fill-opacity="0.780"/>
<text x="222.00" y="1841.00" text-anchor="end" class="small">prepare_sausage_cheese</text>
<rect x="540.00" y="1834.00" width="76.19" height="9.00" fill="#54a24b" stroke="none" fill-opacity="0.780"/>
<text x="222.00" y="1854.00" text-anchor="end" class="small">line_up_condiments</text>
<rect x="540.00" y="1847.00" width="76.92" height="9.00" fill="#54a24b" stroke="none" fill-opacity="0.780"/>
<text x="222.00" y="1867.00" text-anchor="end" class="small">arrange_drinkware</text>
<rect x="540.00" y="1860.00" width="77.40" height="9.00" fill="#54a24b" stroke="none" fill-opacity="0.780"/>
<text x="222.00" y="1880.00" text-anchor="end" class="small">setup_butter_plate</text>
<rect x="540.00" y="1873.00" width="78.95" height="9.00" fill="#54a24b" stroke="none" fill-opacity="0.780"/>
<text x="222.00" y="1893.00" text-anchor="end" class="small">garnish_cake</text>
<rect x="540.00" y="1886.00" width="80.49" height="9.00" fill="#54a24b" stroke="none" fill-opacity="0.780"/>
<text x="222.00" y="1906.00" text-anchor="end" class="small">seasoning_steak</text>
<rect x="540.00" y="1899.00" width="82.57" height="9.00" fill="#54a24b" stroke="none" fill-opacity="0.780"/>
<text x="222.00" y="1919.00" text-anchor="end" class="small">display_meat_variety</text>
<rect x="540.00" y="1912.00" width="89.78" height="9.00" fill="#54a24b" stroke="none" fill-opacity="0.780"/>
<text x="222.00" y="1932.00" text-anchor="end" class="small">garnish_cupcake</text>
<rect x="540.00" y="1925.00" width="92.71" height="9.00" fill="#54a24b" stroke="none" fill-opacity="0.780"/>
<text x="222.00" y="1945.00" text-anchor="end" class="small">distribute_chicken</text>
<rect x="540.00" y="1938.00" width="100.87" height="9.00" fill="#54a24b" stroke="none" fill-opacity="0.780"/>
<text x="222.00" y="1958.00" text-anchor="end" class="small">veggie_dip_prep</text>
<rect x="540.00" y="1951.00" width="101.64" height="9.00" fill="#54a24b" stroke="none" fill-opacity="0.780"/>
<text x="222.00" y="1971.00" text-anchor="end" class="small">meat_skewer_assembly</text>
<rect x="540.00" y="1964.00" width="101.96" height="9.00" fill="#54a24b" stroke="none" fill-opacity="0.780"/>
<text x="222.00" y="1984.00" text-anchor="end" class="small">spicy_marinade</text>
<rect x="540.00" y="1977.00" width="108.41" height="9.00" fill="#54a24b" stroke="none" fill-opacity="0.780"/>
<text x="222.00" y="1997.00" text-anchor="end" class="small">add_lemon_to_fish</text>
<rect x="540.00" y="1990.00" width="116.51" height="9.00" fill="#54a24b" stroke="none" fill-opacity="0.780"/>
<text x="222.00" y="2010.00" text-anchor="end" class="small">colorful_salsa</text>
<rect x="540.00" y="2003.00" width="119.27" height="9.00" fill="#54a24b" stroke="none" fill-opacity="0.780"/>
<text x="222.00" y="2023.00" text-anchor="end" class="small">prepare_cheese_station</text>
<rect x="540.00" y="2016.00" width="123.63" height="9.00" fill="#54a24b" stroke="none" fill-opacity="0.780"/>
<text x="222.00" y="2036.00" text-anchor="end" class="small">dessert_assembly</text>
<rect x="540.00" y="2029.00" width="126.81" height="9.00" fill="#54a24b" stroke="none" fill-opacity="0.780"/>
<text x="222.00" y="2049.00" text-anchor="end" class="small">lemon_seasoning_fish</text>
<rect x="540.00" y="2042.00" width="133.03" height="9.00" fill="#54a24b" stroke="none" fill-opacity="0.780"/>
<text x="222.00" y="2062.00" text-anchor="end" class="small">candle_cleanup</text>
<rect x="540.00" y="2055.00" width="134.05" height="9.00" fill="#54a24b" stroke="none" fill-opacity="0.780"/>
<text x="222.00" y="2075.00" text-anchor="end" class="small">beverage_organization</text>
<rect x="540.00" y="2068.00" width="143.55" height="9.00" fill="#54a24b" stroke="none" fill-opacity="0.780"/>
<text x="222.00" y="2088.00" text-anchor="end" class="small">portion_yogurt</text>
<rect x="540.00" y="2081.00" width="153.28" height="9.00" fill="#54a24b" stroke="none" fill-opacity="0.780"/>
<text x="222.00" y="2101.00" text-anchor="end" class="small">portion_hot_dogs</text>
<rect x="540.00" y="2094.00" width="187.30" height="9.00" fill="#54a24b" stroke="none" fill-opacity="0.780"/>
<text x="222.00" y="2114.00" text-anchor="end" class="small">add_sugar_cubes</text>
<rect x="540.00" y="2107.00" width="192.21" height="9.00" fill="#54a24b" stroke="none" fill-opacity="0.780"/>
<text x="222.00" y="2127.00" text-anchor="end" class="small">cluster_items_for_clearing</text>
<rect x="540.00" y="2120.00" width="257.28" height="9.00" fill="#54a24b" stroke="none" fill-opacity="0.780"/>
</svg>
