<svg xmlns="http://www.w3.org/2000/svg" width="840" height="520" viewBox="0 0 840 520">
<style>text{font-family:Arial,Helvetica,sans-serif;fill:#222}.title{font-size:18px;font-weight:700}.label{font-size:12px}.small{font-size:10px}.axis{stroke:#555;stroke-width:1}.grid{stroke:#ddd;stroke-width:1}</style>
<rect x="0" y="0" width="100%" height="100%" fill="white"/>
<text x="80.00" y="30.00" text-anchor="start" class="title">Trajectory diversity by sampling method</text>
<line x1="80.00" y1="56.00" x2="80.00" y2="438.00" stroke="#555" stroke-width="1.00" stroke-opacity="1.000"/>
<line x1="80.00" y1="438.00" x2="800.00" y2="438.00" stroke="#555" stroke-width="1.00" stroke-opacity="1.000"/>
<line x1="80.00" y1="438.00" x2="800.00" y2="438.00" stroke="#ddd" stroke-width="1.00" stroke-opacity="1.000"/>
<text x="72.00" y="442.00" text-anchor="end" class="small">0.000</text>
<line x1="80.00" y1="342.50" x2="800.00" y2="342.50" stroke="#ddd" stroke-width="1.00" stroke-opacity="1.000"/>
<text x="72.00" y="346.50" text-anchor="end" class="small">0.050</text>
<line x1="80.00" y1="247.00" x2="800.00" y2="247.00" stroke="#ddd" stroke-width="1.00" stroke-opacity="1.000"/>
<text x="72.00" y="251.00" text-anchor="end" class="small">0.10</text>
<line x1="80.00" y1="151.50" x2="800.00" y2="151.50" stroke="#ddd" stroke-width="1.00" stroke-opacity="1.000"/>
<text x="72.00" y="155.50" text-anchor="end" class="small">0.15</text>
<line x1="80.00" y1="56.00" x2="800.00" y2="56.00" stroke="#ddd" stroke-width="1.00" stroke-opacity="1.000"/>
<text x="72.00" y="60.00" text-anchor="end" class="small">0.20</text>
<text x="20.00" y="247.00" text-anchor="middle" class="label" transform="rotate(-90.0 20.00 247.00)">1 - avg cosine</text>
<line x1="170.00" y1="379.07" x2="170.00" y2="245.99" stroke="#4c78a8" stroke-width="2.00" stroke-opacity="1.000"/>
<line x1="146.00" y1="379.07" x2="194.00" y2="379.07" stroke="#4c78a8" stroke-width="2.00" stroke-opacity="1.000"/>
<line x1="146.00" y1="245.99" x2="194.00" y2="245.99" stroke="#4c78a8" stroke-width="2.00" stroke-opacity="1.000"/>
<rect x="134.00" y="316.37" width="72.00" height="25.68" fill="#4c78a8" stroke="#4c78a8" fill-opacity="0.220"/>
<line x1="134.00" y1="329.94" x2="206.00" y2="329.94" stroke="#4c78a8" stroke-width="2.00" stroke-opacity="1.000"/>
<circle cx="158.79" cy="324.00" r="3.00" fill="#4c78a8" stroke="white" fill-opacity="0.740"/>
<circle cx="176.80" cy="349.33" r="3.00" fill="#4c78a8" stroke="white" fill-opacity="0.740"/>
<circle cx="174.93" cy="320.95" r="3.00" fill="#4c78a8" stroke="white" fill-opacity="0.740"/>
<circle cx="178.39" cy="347.50" r="3.00" fill="#4c78a8" stroke="white" fill-opacity="0.740"/>
<circle cx="185.23" cy="339.77" r="3.00" fill="#4c78a8" stroke="white" fill-opacity="0.740"/>
<circle cx="162.37" cy="351.23" r="3.00" fill="#4c78a8" stroke="white" fill-opacity="0.740"/>
<circle cx="183.16" cy="352.26" r="3.00" fill="#4c78a8" stroke="white" fill-opacity="0.740"/>
<circle cx="184.23" cy="339.82" r="3.00" fill="#4c78a8" stroke="white" fill-opacity="0.740"/>
<circle cx="159.58" cy="322.34" r="3.00" fill="#4c78a8" stroke="white" fill-opacity="0.740"/>
<circle cx="154.85" cy="251.57" r="3.00" fill="#4c78a8" stroke="white" fill-opacity="0.740"/>
<circle cx="178.75" cy="342.12" r="3.00" fill="#4c78a8" stroke="white" fill-opacity="0.740"/>
<circle cx="156.16" cy="285.69" r="3.00" fill="#4c78a8" stroke="white" fill-opacity="0.740"/>
<circle cx="158.47" cy="330.45" r="3.00" fill="#4c78a8" stroke="white" fill-opacity="0.740"/>
<circle cx="169.44" cy="316.03" r="3.00" fill="#4c78a8" stroke="white" fill-opacity="0.740"/>
<circle cx="179.54" cy="341.49" r="3.00" fill="#4c78a8" stroke="white" fill-opacity="0.740"/>
<circle cx="184.03" cy="305.22" r="3.00" fill="#4c78a8" stroke="white" fill-opacity="0.740"/>
<circle cx="189.44" cy="327.40" r="3.00" fill="#4c78a8" stroke="white" fill-opacity="0.740"/>
<circle cx="180.22" cy="332.87" r="3.00" fill="#4c78a8" stroke="white" fill-opacity="0.740"/>
<circle cx="179.66" cy="303.31" r="3.00" fill="#4c78a8" stroke="white" fill-opacity="0.740"/>
<circle cx="189.76" cy="346.02" r="3.00" fill="#4c78a8" stroke="white" fill-opacity="0.740"/>
<circle cx="152.43" cy="308.79" r="3.00" fill="#4c78a8" stroke="white" fill-opacity="0.740"/>
<circle cx="172.98" cy="327.14" r="3.00" fill="#4c78a8" stroke="white" fill-opacity="0.740"/>
<circle cx="168.81" cy="307.17" r="3.00" fill="#4c78a8" stroke="white" fill-opacity="0.740"/>
<circle cx="155.13" cy="342.78" r="3.00" fill="#4c78a8" stroke="white" fill-opacity="0.740"/>
<circle cx="186.34" cy="316.71" r="3.00" fill="#4c78a8" stroke="white" fill-opacity="0.740"/>
<circle cx="162.25" cy="335.08" r="3.00" fill="#4c78a8" stroke="white" fill-opacity="0.740"/>
<circle cx="167.93" cy="329.60" r="3.00" fill="#4c78a8" stroke="white" fill-opacity="0.740"/>
<circle cx="186.78" cy="329.94" r="3.00" fill="#4c78a8" stroke="white" fill-opacity="0.740"/>
<circle cx="175.25" cy="304.66" r="3.00" fill="#4c78a8" stroke="white" fill-opacity="0.740"/>
<circle cx="169.60" cy="245.99" r="3.00" fill="#4c78a8" stroke="white" fill-opacity="0.740"/>
<circle cx="161.49" cy="314.45" r="3.00" fill="#4c78a8" stroke="white" fill-opacity="0.740"/>
<circle cx="174.21" cy="314.65" r="3.00" fill="#4c78a8" stroke="white" fill-opacity="0.740"/>
<circle cx="179.46" cy="338.75" r="3.00" fill="#4c78a8" stroke="white" fill-opacity="0.740"/>
<circle cx="150.56" cy="379.07" r="3.00" fill="#4c78a8" stroke="white" fill-opacity="0.740"/>
<circle cx="155.53" cy="343.38" r="3.00" fill="#4c78a8" stroke="white" fill-opacity="0.740"/>
<circle cx="185.11" cy="319.01" r="3.00" fill="#4c78a8" stroke="white" fill-opacity="0.740"/>
<circle cx="163.96" cy="336.30" r="3.00" fill="#4c78a8" stroke="white" fill-opacity="0.740"/>
<circle cx="181.97" cy="352.82" r="3.00" fill="#4c78a8" stroke="white" fill-opacity="0.740"/>
<circle cx="179.78" cy="341.97" r="3.00" fill="#4c78a8" stroke="white" fill-opacity="0.740"/>
<circle cx="157.40" cy="301.78" r="3.00" fill="#4c78a8" stroke="white" fill-opacity="0.740"/>
<circle cx="150.84" cy="358.47" r="3.00" fill="#4c78a8" stroke="white" fill-opacity="0.740"/>
<circle cx="178.39" cy="289.76" r="3.00" fill="#4c78a8" stroke="white" fill-opacity="0.740"/>
<circle cx="174.85" cy="318.63" r="3.00" fill="#4c78a8" stroke="white" fill-opacity="0.740"/>
<circle cx="161.09" cy="337.34" r="3.00" fill="#4c78a8" stroke="white" fill-opacity="0.740"/>
<circle cx="165.59" cy="358.31" r="3.00" fill="#4c78a8" stroke="white" fill-opacity="0.740"/>
<circle cx="182.48" cy="327.90" r="3.00" fill="#4c78a8" stroke="white" fill-opacity="0.740"/>
<circle cx="165.51" cy="322.29" r="3.00" fill="#4c78a8" stroke="white" fill-opacity="0.740"/>
<circle cx="188.29" cy="343.52" r="3.00" fill="#4c78a8" stroke="white" fill-opacity="0.740"/>
<circle cx="185.19" cy="324.21" r="3.00" fill="#4c78a8" stroke="white" fill-opacity="0.740"/>
<circle cx="173.86" cy="338.04" r="3.00" fill="#4c78a8" stroke="white" fill-opacity="0.740"/>
<circle cx="178.15" cy="333.61" r="3.00" fill="#4c78a8" stroke="white" fill-opacity="0.740"/>
<text x="170.00" y="468.00" text-anchor="middle" class="label">base</text>
<text x="170.00" y="486.00" text-anchor="middle" class="small">(n=51)</text>
<line x1="350.00" y1="375.06" x2="350.00" y2="221.48" stroke="#f58518" stroke-width="2.00" stroke-opacity="1.000"/>
<line x1="326.00" y1="375.06" x2="374.00" y2="375.06" stroke="#f58518" stroke-width="2.00" stroke-opacity="1.000"/>
<line x1="326.00" y1="221.48" x2="374.00" y2="221.48" stroke="#f58518" stroke-width="2.00" stroke-opacity="1.000"/>
<rect x="314.00" y="306.08" width="72.00" height="28.54" fill="#f58518" stroke="#f58518" fill-opacity="0.220"/>
<line x1="314.00" y1="322.25" x2="386.00" y2="322.25" stroke="#f58518" stroke-width="2.00" stroke-opacity="1.000"/>
<circle cx="338.79" cy="325.18" r="3.00" fill="#f58518" stroke="white" fill-opacity="0.740"/>
<circle cx="356.80" cy="323.53" r="3.00" fill="#f58518" stroke="white" fill-opacity="0.740"/>
<circle cx="354.93" cy="318.84" r="3.00" fill="#f58518" stroke="white" fill-opacity="0.740"/>
<circle cx="358.39" cy="330.06" r="3.00" fill="#f58518" stroke="white" fill-opacity="0.740"/>
<circle cx="365.23" cy="334.43" r="3.00" fill="#f58518" stroke="white" fill-opacity="0.740"/>
<circle cx="342.37" cy="336.29" r="3.00" fill="#f58518" stroke="white" fill-opacity="0.740"/>
<circle cx="363.16" cy="343.00" r="3.00" fill="#f58518" stroke="white" fill-opacity="0.740"/>
<circle cx="364.23" cy="300.25" r="3.00" fill="#f58518" stroke="white" fill-opacity="0.740"/>
<circle cx="339.58" cy="345.21" r="3.00" fill="#f58518" stroke="white" fill-opacity="0.740"/>
<circle cx="334.85" cy="221.48" r="3.00" fill="#f58518" stroke="white" fill-opacity="0.740"/>
<circle cx="358.75" cy="330.94" r="3.00" fill="#f58518" stroke="white" fill-opacity="0.740"/>
<circle cx="336.16" cy="261.08" r="3.00" fill="#f58518" stroke="white" fill-opacity="0.740"/>
<circle cx="338.47" cy="324.37" r="3.00" fill="#f58518" stroke="white" fill-opacity="0.740"/>
<circle cx="349.44" cy="286.75" r="3.00" fill="#f58518" stroke="white" fill-opacity="0.740"/>
<circle cx="359.54" cy="338.39" r="3.00" fill="#f58518" stroke="white" fill-opacity="0.740"/>
<circle cx="364.03" cy="293.46" r="3.00" fill="#f58518" stroke="white" fill-opacity="0.740"/>
<circle cx="369.44" cy="321.96" r="3.00" fill="#f58518" stroke="white" fill-opacity="0.740"/>
<circle cx="360.22" cy="327.19" r="3.00" fill="#f58518" stroke="white" fill-opacity="0.740"/>
<circle cx="359.66" cy="289.83" r="3.00" fill="#f58518" stroke="white" fill-opacity="0.740"/>
<circle cx="369.76" cy="338.85" r="3.00" fill="#f58518" stroke="white" fill-opacity="0.740"/>
<circle cx="332.43" cy="287.67" r="3.00" fill="#f58518" stroke="white" fill-opacity="0.740"/>
<circle cx="352.98" cy="319.27" r="3.00" fill="#f58518" stroke="white" fill-opacity="0.740"/>
<circle cx="348.81" cy="311.41" r="3.00" fill="#f58518" stroke="white" fill-opacity="0.740"/>
<circle cx="335.13" cy="333.39" r="3.00" fill="#f58518" stroke="white" fill-opacity="0.740"/>
<circle cx="366.34" cy="305.63" r="3.00" fill="#f58518" stroke="white" fill-opacity="0.740"/>
<circle cx="342.25" cy="325.11" r="3.00" fill="#f58518" stroke="white" fill-opacity="0.740"/>
<circle cx="347.93" cy="331.19" r="3.00" fill="#f58518" stroke="white" fill-opacity="0.740"/>
<circle cx="366.78" cy="303.49" r="3.00" fill="#f58518" stroke="white" fill-opacity="0.740"/>
<circle cx="355.25" cy="322.54" r="3.00" fill="#f58518" stroke="white" fill-opacity="0.740"/>
<circle cx="349.60" cy="290.21" r="3.00" fill="#f58518" stroke="white" fill-opacity="0.740"/>
<circle cx="341.49" cy="292.75" r="3.00" fill="#f58518" stroke="white" fill-opacity="0.740"/>
<circle cx="354.21" cy="311.04" r="3.00" fill="#f58518" stroke="white" fill-opacity="0.740"/>
<circle cx="359.46" cy="315.99" r="3.00" fill="#f58518" stroke="white" fill-opacity="0.740"/>
<circle cx="330.56" cy="375.06" r="3.00" fill="#f58518" stroke="white" fill-opacity="0.740"/>
<circle cx="335.53" cy="339.81" r="3.00" fill="#f58518" stroke="white" fill-opacity="0.740"/>
<circle cx="363.24" cy="335.61" r="3.00" fill="#f58518" stroke="white" fill-opacity="0.740"/>
<circle cx="365.11" cy="311.52" r="3.00" fill="#f58518" stroke="white" fill-opacity="0.740"/>
<circle cx="343.96" cy="335.18" r="3.00" fill="#f58518" stroke="white" fill-opacity="0.740"/>
<circle cx="361.97" cy="312.29" r="3.00" fill="#f58518" stroke="white" fill-opacity="0.740"/>
<circle cx="359.78" cy="333.97" r="3.00" fill="#f58518" stroke="white" fill-opacity="0.740"/>
<circle cx="337.40" cy="306.22" r="3.00" fill="#f58518" stroke="white" fill-opacity="0.740"/>
<circle cx="330.84" cy="347.33" r="3.00" fill="#f58518" stroke="white" fill-opacity="0.740"/>
<circle cx="358.39" cy="291.51" r="3.00" fill="#f58518" stroke="white" fill-opacity="0.740"/>
<circle cx="354.85" cy="316.96" r="3.00" fill="#f58518" stroke="white" fill-opacity="0.740"/>
<circle cx="341.09" cy="344.28" r="3.00" fill="#f58518" stroke="white" fill-opacity="0.740"/>
<circle cx="345.59" cy="353.61" r="3.00" fill="#f58518" stroke="white" fill-opacity="0.740"/>
<circle cx="362.48" cy="312.05" r="3.00" fill="#f58518" stroke="white" fill-opacity="0.740"/>
<circle cx="345.51" cy="310.41" r="3.00" fill="#f58518" stroke="white" fill-opacity="0.740"/>
<circle cx="368.29" cy="300.61" r="3.00" fill="#f58518" stroke="white" fill-opacity="0.740"/>
<circle cx="365.19" cy="330.28" r="3.00" fill="#f58518" stroke="white" fill-opacity="0.740"/>
<circle cx="353.86" cy="340.62" r="3.00" fill="#f58518" stroke="white" fill-opacity="0.740"/>
<circle cx="358.15" cy="312.06" r="3.00" fill="#f58518" stroke="white" fill-opacity="0.740"/>
<text x="350.00" y="468.00" text-anchor="middle" class="label">high temp</text>
<text x="350.00" y="486.00" text-anchor="middle" class="small">(n=52)</text>
<line x1="530.00" y1="369.29" x2="530.00" y2="244.87" stroke="#54a24b" stroke-width="2.00" stroke-opacity="1.000"/>
<line x1="506.00" y1="369.29" x2="554.00" y2="369.29" stroke="#54a24b" stroke-width="2.00" stroke-opacity="1.000"/>
<line x1="506.00" y1="244.87" x2="554.00" y2="244.87" stroke="#54a24b" stroke-width="2.00" stroke-opacity="1.000"/>
<rect x="494.00" y="313.50" width="72.00" height="27.06" fill="#54a24b" stroke="#54a24b" fill-opacity="0.220"/>
<line x1="494.00" y1="328.89" x2="566.00" y2="328.89" stroke="#54a24b" stroke-width="2.00" stroke-opacity="1.000"/>
<circle cx="518.79" cy="331.00" r="3.00" fill="#54a24b" stroke="white" fill-opacity="0.740"/>
<circle cx="536.80" cy="340.52" r="3.00" fill="#54a24b" stroke="white" fill-opacity="0.740"/>
<circle cx="534.93" cy="308.16" r="3.00" fill="#54a24b" stroke="white" fill-opacity="0.740"/>
<circle cx="538.39" cy="324.18" r="3.00" fill="#54a24b" stroke="white" fill-opacity="0.740"/>
<circle cx="545.23" cy="338.53" r="3.00" fill="#54a24b" stroke="white" fill-opacity="0.740"/>
<circle cx="522.37" cy="328.70" r="3.00" fill="#54a24b" stroke="white" fill-opacity="0.740"/>
<circle cx="543.16" cy="359.36" r="3.00" fill="#54a24b" stroke="white" fill-opacity="0.740"/>
<circle cx="544.23" cy="329.09" r="3.00" fill="#54a24b" stroke="white" fill-opacity="0.740"/>
<circle cx="519.58" cy="306.69" r="3.00" fill="#54a24b" stroke="white" fill-opacity="0.740"/>
<circle cx="514.85" cy="244.87" r="3.00" fill="#54a24b" stroke="white" fill-opacity="0.740"/>
<circle cx="538.75" cy="345.42" r="3.00" fill="#54a24b" stroke="white" fill-opacity="0.740"/>
<circle cx="516.16" cy="266.77" r="3.00" fill="#54a24b" stroke="white" fill-opacity="0.740"/>
<circle cx="518.47" cy="347.36" r="3.00" fill="#54a24b" stroke="white" fill-opacity="0.740"/>
<circle cx="529.44" cy="296.72" r="3.00" fill="#54a24b" stroke="white" fill-opacity="0.740"/>
<circle cx="539.54" cy="340.67" r="3.00" fill="#54a24b" stroke="white" fill-opacity="0.740"/>
<circle cx="544.03" cy="312.36" r="3.00" fill="#54a24b" stroke="white" fill-opacity="0.740"/>
<circle cx="549.44" cy="339.50" r="3.00" fill="#54a24b" stroke="white" fill-opacity="0.740"/>
<circle cx="540.22" cy="358.86" r="3.00" fill="#54a24b" stroke="white" fill-opacity="0.740"/>
<circle cx="539.66" cy="283.28" r="3.00" fill="#54a24b" stroke="white" fill-opacity="0.740"/>
<circle cx="549.76" cy="346.30" r="3.00" fill="#54a24b" stroke="white" fill-opacity="0.740"/>
<circle cx="512.43" cy="308.07" r="3.00" fill="#54a24b" stroke="white" fill-opacity="0.740"/>
<circle cx="532.98" cy="337.03" r="3.00" fill="#54a24b" stroke="white" fill-opacity="0.740"/>
<circle cx="528.81" cy="316.39" r="3.00" fill="#54a24b" stroke="white" fill-opacity="0.740"/>
<circle cx="515.13" cy="352.27" r="3.00" fill="#54a24b" stroke="white" fill-opacity="0.740"/>
<circle cx="546.34" cy="313.88" r="3.00" fill="#54a24b" stroke="white" fill-opacity="0.740"/>
<circle cx="522.25" cy="335.64" r="3.00" fill="#54a24b" stroke="white" fill-opacity="0.740"/>
<circle cx="527.93" cy="331.51" r="3.00" fill="#54a24b" stroke="white" fill-opacity="0.740"/>
<circle cx="546.78" cy="316.34" r="3.00" fill="#54a24b" stroke="white" fill-opacity="0.740"/>
<circle cx="535.25" cy="305.68" r="3.00" fill="#54a24b" stroke="white" fill-opacity="0.740"/>
<circle cx="529.60" cy="265.69" r="3.00" fill="#54a24b" stroke="white" fill-opacity="0.740"/>
<circle cx="521.49" cy="312.23" r="3.00" fill="#54a24b" stroke="white" fill-opacity="0.740"/>
<circle cx="534.21" cy="341.08" r="3.00" fill="#54a24b" stroke="white" fill-opacity="0.740"/>
<circle cx="539.46" cy="297.33" r="3.00" fill="#54a24b" stroke="white" fill-opacity="0.740"/>
<circle cx="510.56" cy="369.29" r="3.00" fill="#54a24b" stroke="white" fill-opacity="0.740"/>
<circle cx="515.53" cy="348.04" r="3.00" fill="#54a24b" stroke="white" fill-opacity="0.740"/>
<circle cx="543.24" cy="355.03" r="3.00" fill="#54a24b" stroke="white" fill-opacity="0.740"/>
<circle cx="545.11" cy="323.98" r="3.00" fill="#54a24b" stroke="white" fill-opacity="0.740"/>
<circle cx="523.96" cy="335.55" r="3.00" fill="#54a24b" stroke="white" fill-opacity="0.740"/>
<circle cx="541.97" cy="328.02" r="3.00" fill="#54a24b" stroke="white" fill-opacity="0.740"/>
<circle cx="539.78" cy="337.10" r="3.00" fill="#54a24b" stroke="white" fill-opacity="0.740"/>
<circle cx="517.40" cy="320.54" r="3.00" fill="#54a24b" stroke="white" fill-opacity="0.740"/>
<circle cx="510.84" cy="351.62" r="3.00" fill="#54a24b" stroke="white" fill-opacity="0.740"/>
<circle cx="538.39" cy="290.12" r="3.00" fill="#54a24b" stroke="white" fill-opacity="0.740"/>
<circle cx="534.85" cy="317.43" r="3.00" fill="#54a24b" stroke="white" fill-opacity="0.740"/>
<circle cx="521.09" cy="327.02" r="3.00" fill="#54a24b" stroke="white" fill-opacity="0.740"/>
<circle cx="525.59" cy="349.45" r="3.00" fill="#54a24b" stroke="white" fill-opacity="0.740"/>
<circle cx="542.48" cy="320.87" r="3.00" fill="#54a24b" stroke="white" fill-opacity="0.740"/>
<circle cx="525.51" cy="324.51" r="3.00" fill="#54a24b" stroke="white" fill-opacity="0.740"/>
<circle cx="548.29" cy="335.28" r="3.00" fill="#54a24b" stroke="white" fill-opacity="0.740"/>
<circle cx="545.19" cy="325.56" r="3.00" fill="#54a24b" stroke="white" fill-opacity="0.740"/>
<circle cx="533.86" cy="330.08" r="3.00" fill="#54a24b" stroke="white" fill-opacity="0.740"/>
<circle cx="538.15" cy="333.16" r="3.00" fill="#54a24b" stroke="white" fill-opacity="0.740"/>
<text x="530.00" y="468.00" text-anchor="middle" class="label">random</text>
<text x="530.00" y="486.00" text-anchor="middle" class="small">(n=52)</text>
<line x1="710.00" y1="342.39" x2="710.00" y2="158.88" stroke="#b279a2" stroke-width="2.00" stroke-opacity="1.000"/>
<line x1="686.00" y1="342.39" x2="734.00" y2="342.39" stroke="#b279a2" stroke-width="2.00" stroke-opacity="1.000"/>
<line x1="686.00" y1="158.88" x2="734.00" y2="158.88" stroke="#b279a2" stroke-width="2.00" stroke-opacity="1.000"/>
<rect x="674.00" y="271.33" width="72.00" height="41.45" fill="#b279a2" stroke="#b279a2" fill-opacity="0.220"/>
<line x1="674.00" y1="297.10" x2="746.00" y2="297.10" stroke="#b279a2" stroke-width="2.00" stroke-opacity="1.000"/>
<circle cx="698.79" cy="266.58" r="3.00" fill="#b279a2" stroke="white" fill-opacity="0.740"/>
<circle cx="716.80" cy="254.58" r="3.00" fill="#b279a2" stroke="white" fill-opacity="0.740"/>
<circle cx="714.93" cy="315.50" r="3.00" fill="#b279a2" stroke="white" fill-opacity="0.740"/>
<circle cx="718.39" cy="313.20" r="3.00" fill="#b279a2" stroke="white" fill-opacity="0.740"/>
<circle cx="725.23" cy="317.85" r="3.00" fill="#b279a2" stroke="white" fill-opacity="0.740"/>
<circle cx="702.37" cy="313.08" r="3.00" fill="#b279a2" stroke="white" fill-opacity="0.740"/>
<circle cx="723.16" cy="336.18" r="3.00" fill="#b279a2" stroke="white" fill-opacity="0.740"/>
<circle cx="724.23" cy="269.06" r="3.00" fill="#b279a2" stroke="white" fill-opacity="0.740"/>
<circle cx="699.58" cy="306.97" r="3.00" fill="#b279a2" stroke="white" fill-opacity="0.740"/>
<circle cx="694.85" cy="185.49" r="3.00" fill="#b279a2" stroke="white" fill-opacity="0.740"/>
<circle cx="718.75" cy="342.39" r="3.00" fill="#b279a2" stroke="white" fill-opacity="0.740"/>
<circle cx="696.16" cy="158.88" r="3.00" fill="#b279a2" stroke="white" fill-opacity="0.740"/>
<circle cx="698.47" cy="271.66" r="3.00" fill="#b279a2" stroke="white" fill-opacity="0.740"/>
<circle cx="709.44" cy="285.68" r="3.00" fill="#b279a2" stroke="white" fill-opacity="0.740"/>
<circle cx="719.54" cy="310.94" r="3.00" fill="#b279a2" stroke="white" fill-opacity="0.740"/>
<circle cx="724.03" cy="278.86" r="3.00" fill="#b279a2" stroke="white" fill-opacity="0.740"/>
<circle cx="729.44" cy="296.67" r="3.00" fill="#b279a2" stroke="white" fill-opacity="0.740"/>
<circle cx="720.22" cy="270.36" r="3.00" fill="#b279a2" stroke="white" fill-opacity="0.740"/>
<circle cx="719.66" cy="259.05" r="3.00" fill="#b279a2" stroke="white" fill-opacity="0.740"/>
<circle cx="729.76" cy="296.30" r="3.00" fill="#b279a2" stroke="white" fill-opacity="0.740"/>
<circle cx="692.43" cy="269.11" r="3.00" fill="#b279a2" stroke="white" fill-opacity="0.740"/>
<circle cx="712.98" cy="281.44" r="3.00" fill="#b279a2" stroke="white" fill-opacity="0.740"/>
<circle cx="708.81" cy="275.11" r="3.00" fill="#b279a2" stroke="white" fill-opacity="0.740"/>
<circle cx="695.13" cy="312.68" r="3.00" fill="#b279a2" stroke="white" fill-opacity="0.740"/>
<circle cx="726.34" cy="304.12" r="3.00" fill="#b279a2" stroke="white" fill-opacity="0.740"/>
<circle cx="702.25" cy="269.51" r="3.00" fill="#b279a2" stroke="white" fill-opacity="0.740"/>
<circle cx="707.93" cy="291.68" r="3.00" fill="#b279a2" stroke="white" fill-opacity="0.740"/>
<circle cx="726.78" cy="297.54" r="3.00" fill="#b279a2" stroke="white" fill-opacity="0.740"/>
<circle cx="715.25" cy="254.40" r="3.00" fill="#b279a2" stroke="white" fill-opacity="0.740"/>
<circle cx="709.60" cy="261.58" r="3.00" fill="#b279a2" stroke="white" fill-opacity="0.740"/>
<circle cx="701.49" cy="307.03" r="3.00" fill="#b279a2" stroke="white" fill-opacity="0.740"/>
<circle cx="714.21" cy="222.33" r="3.00" fill="#b279a2" stroke="white" fill-opacity="0.740"/>
<circle cx="719.46" cy="263.20" r="3.00" fill="#b279a2" stroke="white" fill-opacity="0.740"/>
<circle cx="690.56" cy="318.13" r="3.00" fill="#b279a2" stroke="white" fill-opacity="0.740"/>
<circle cx="695.53" cy="326.65" r="3.00" fill="#b279a2" stroke="white" fill-opacity="0.740"/>
<circle cx="723.24" cy="331.63" r="3.00" fill="#b279a2" stroke="white" fill-opacity="0.740"/>
<circle cx="725.11" cy="303.31" r="3.00" fill="#b279a2" stroke="white" fill-opacity="0.740"/>
<circle cx="703.96" cy="298.75" r="3.00" fill="#b279a2" stroke="white" fill-opacity="0.740"/>
<circle cx="721.97" cy="316.96" r="3.00" fill="#b279a2" stroke="white" fill-opacity="0.740"/>
<circle cx="719.78" cy="301.27" r="3.00" fill="#b279a2" stroke="white" fill-opacity="0.740"/>
<circle cx="697.40" cy="275.36" r="3.00" fill="#b279a2" stroke="white" fill-opacity="0.740"/>
<circle cx="690.84" cy="326.66" r="3.00" fill="#b279a2" stroke="white" fill-opacity="0.740"/>
<circle cx="718.39" cy="290.52" r="3.00" fill="#b279a2" stroke="white" fill-opacity="0.740"/>
<circle cx="714.85" cy="305.36" r="3.00" fill="#b279a2" stroke="white" fill-opacity="0.740"/>
<circle cx="701.09" cy="305.67" r="3.00" fill="#b279a2" stroke="white" fill-opacity="0.740"/>
<circle cx="705.59" cy="319.39" r="3.00" fill="#b279a2" stroke="white" fill-opacity="0.740"/>
<circle cx="722.48" cy="320.59" r="3.00" fill="#b279a2" stroke="white" fill-opacity="0.740"/>
<circle cx="705.51" cy="302.27" r="3.00" fill="#b279a2" stroke="white" fill-opacity="0.740"/>
<circle cx="728.29" cy="290.08" r="3.00" fill="#b279a2" stroke="white" fill-opacity="0.740"/>
<circle cx="725.19" cy="289.81" r="3.00" fill="#b279a2" stroke="white" fill-opacity="0.740"/>
<circle cx="713.86" cy="312.01" r="3.00" fill="#b279a2" stroke="white" fill-opacity="0.740"/>
<circle cx="718.15" cy="283.51" r="3.00" fill="#b279a2" stroke="white" fill-opacity="0.740"/>
<text x="710.00" y="468.00" text-anchor="middle" class="label">verbalized</text>
<text x="710.00" y="486.00" text-anchor="middle" class="small">(n=52)</text>
</svg>
