<svg xmlns="http://www.w3.org/2000/svg" width="900" height="964" viewBox="0 0 900 964">
<style>text{font-family:Arial,Helvetica,sans-serif;fill:#222}.title{font-size:18px;font-weight:700}.label{font-size:12px}.small{font-size:10px}.axis{stroke:#555;stroke-width:1}.grid{stroke:#ddd;stroke-width:1}</style>
<rect x="0" y="0" width="100%" height="100%" fill="white"/>
<text x="48.00" y="30.00" text-anchor="start" class="title">Per-trajectory fraction of top tools</text>
<line x1="54.00" y1="64.00" x2="54.00" y2="214.00" stroke="#555" stroke-width="1.00" stroke-opacity="1.000"/>
<line x1="54.00" y1="214.00" x2="392.00" y2="214.00" stroke="#555" stroke-width="1.00" stroke-opacity="1.000"/>
<line x1="54.00" y1="214.00" x2="392.00" y2="214.00" stroke="#ddd" stroke-width="1.00" stroke-opacity="1.000"/>
<text x="46.00" y="218.00" text-anchor="end" class="small">0.000</text>
<line x1="54.00" y1="176.50" x2="392.00" y2="176.50" stroke="#ddd" stroke-width="1.00" stroke-opacity="1.000"/>
<text x="46.00" y="180.50" text-anchor="end" class="small">0.18</text>
<line x1="54.00" y1="139.00" x2="392.00" y2="139.00" stroke="#ddd" stroke-width="1.00" stroke-opacity="1.000"/>
<text x="46.00" y="143.00" text-anchor="end" class="small">0.35</text>
<line x1="54.00" y1="101.50" x2="392.00" y2="101.50" stroke="#ddd" stroke-width="1.00" stroke-opacity="1.000"/>
<text x="46.00" y="105.50" text-anchor="end" class="small">0.53</text>
<line x1="54.00" y1="64.00" x2="392.00" y2="64.00" stroke="#ddd" stroke-width="1.00" stroke-opacity="1.000"/>
<text x="46.00" y="68.00" text-anchor="end" class="small">0.70</text>
<text x="20.00" y="139.00" text-anchor="middle" class="label" transform="rotate(-90.0 20.00 139.00)">fraction</text>
<text x="54.00" y="46.00" text-anchor="start" class="label">communicate</text>
<line x1="96.25" y1="178.29" x2="96.25" y2="94.95" stroke="#4c78a8" stroke-width="1.60" stroke-opacity="1.000"/>
<rect x="77.24" y="130.67" width="38.02" height="17.40" fill="#4c78a8" stroke="#4c78a8" fill-opacity="0.220"/>
<line x1="77.24" y1="139.00" x2="115.26" y2="139.00" stroke="#4c78a8" stroke-width="1.60" stroke-opacity="1.000"/>
<text x="96.25" y="232.00" text-anchor="middle" class="small">base</text>
<line x1="180.75" y1="178.29" x2="180.75" y2="91.55" stroke="#f58518" stroke-width="1.60" stroke-opacity="1.000"/>
<rect x="161.74" y="128.29" width="38.02" height="19.78" fill="#f58518" stroke="#f58518" fill-opacity="0.220"/>
<line x1="161.74" y1="138.37" x2="199.76" y2="138.37" stroke="#f58518" stroke-width="1.60" stroke-opacity="1.000"/>
<text x="180.75" y="232.00" text-anchor="middle" class="small">high temp</text>
<line x1="265.25" y1="176.18" x2="265.25" y2="94.95" stroke="#54a24b" stroke-width="1.60" stroke-opacity="1.000"/>
<rect x="246.24" y="131.35" width="38.02" height="17.43" fill="#54a24b" stroke="#54a24b" fill-opacity="0.220"/>
<line x1="246.24" y1="142.57" x2="284.26" y2="142.57" stroke="#54a24b" stroke-width="1.60" stroke-opacity="1.000"/>
<text x="265.25" y="232.00" text-anchor="middle" class="small">random</text>
<line x1="349.75" y1="176.18" x2="349.75" y2="94.95" stroke="#b279a2" stroke-width="1.60" stroke-opacity="1.000"/>
<rect x="330.74" y="133.64" width="38.02" height="17.33" fill="#b279a2" stroke="#b279a2" fill-opacity="0.220"/>
<line x1="330.74" y1="142.57" x2="368.76" y2="142.57" stroke="#b279a2" stroke-width="1.60" stroke-opacity="1.000"/>
<text x="349.75" y="232.00" text-anchor="middle" class="small">verbalized</text>
<line x1="484.00" y1="64.00" x2="484.00" y2="214.00" stroke="#555" stroke-width="1.00" stroke-opacity="1.000"/>
<line x1="484.00" y1="214.00" x2="822.00" y2="214.00" stroke="#555" stroke-width="1.00" stroke-opacity="1.000"/>
<line x1="484.00" y1="214.00" x2="822.00" y2="214.00" stroke="#ddd" stroke-width="1.00" stroke-opacity="1.000"/>
<text x="476.00" y="218.00" text-anchor="end" class="small">0.000</text>
<line x1="484.00" y1="176.50" x2="822.00" y2="176.50" stroke="#ddd" stroke-width="1.00" stroke-opacity="1.000"/>
<text x="476.00" y="180.50" text-anchor="end" class="small">0.12</text>
<line x1="484.00" y1="139.00" x2="822.00" y2="139.00" stroke="#ddd" stroke-width="1.00" stroke-opacity="1.000"/>
<text x="476.00" y="143.00" text-anchor="end" class="small">0.25</text>
<line x1="484.00" y1="101.50" x2="822.00" y2="101.50" stroke="#ddd" stroke-width="1.00" stroke-opacity="1.000"/>
<text x="476.00" y="105.50" text-anchor="end" class="small">0.38</text>
<line x1="484.00" y1="64.00" x2="822.00" y2="64.00" stroke="#ddd" stroke-width="1.00" stroke-opacity="1.000"/>
<text x="476.00" y="68.00" text-anchor="end" class="small">0.50</text>
<text x="20.00" y="139.00" text-anchor="middle" class="label" transform="rotate(-90.0 20.00 139.00)">fraction</text>
<text x="484.00" y="46.00" text-anchor="start" class="label">navigate_to_fixture</text>
<line x1="526.25" y1="214.00" x2="526.25" y2="101.50" stroke="#4c78a8" stroke-width="1.60" stroke-opacity="1.000"/>
<rect x="507.24" y="139.00" width="38.02" height="32.14" fill="#4c78a8" stroke="#4c78a8" fill-opacity="0.220"/>
<line x1="507.24" y1="151.50" x2="545.26" y2="151.50" stroke="#4c78a8" stroke-width="1.60" stroke-opacity="1.000"/>
<text x="526.25" y="232.00" text-anchor="middle" class="small">base</text>
<line x1="610.75" y1="214.00" x2="610.75" y2="97.33" stroke="#f58518" stroke-width="1.60" stroke-opacity="1.000"/>
<rect x="591.74" y="139.00" width="38.02" height="32.14" fill="#f58518" stroke="#f58518" fill-opacity="0.220"/>
<line x1="591.74" y1="154.00" x2="629.76" y2="154.00" stroke="#f58518" stroke-width="1.60" stroke-opacity="1.000"/>
<text x="610.75" y="232.00" text-anchor="middle" class="small">high temp</text>
<line x1="695.25" y1="214.00" x2="695.25" y2="94.00" stroke="#54a24b" stroke-width="1.60" stroke-opacity="1.000"/>
<rect x="676.24" y="139.00" width="38.02" height="32.14" fill="#54a24b" stroke="#54a24b" fill-opacity="0.220"/>
<line x1="676.24" y1="150.84" x2="714.26" y2="150.84" stroke="#54a24b" stroke-width="1.60" stroke-opacity="1.000"/>
<text x="695.25" y="232.00" text-anchor="middle" class="small">random</text>
<line x1="779.75" y1="214.00" x2="779.75" y2="101.50" stroke="#b279a2" stroke-width="1.60" stroke-opacity="1.000"/>
<rect x="760.74" y="139.00" width="38.02" height="28.85" fill="#b279a2" stroke="#b279a2" fill-opacity="0.220"/>
<line x1="760.74" y1="149.71" x2="798.76" y2="149.71" stroke="#b279a2" stroke-width="1.60" stroke-opacity="1.000"/>
<text x="779.75" y="232.00" text-anchor="middle" class="small">verbalized</text>
<line x1="54.00" y1="284.00" x2="54.00" y2="434.00" stroke="#555" stroke-width="1.00" stroke-opacity="1.000"/>
<line x1="54.00" y1="434.00" x2="392.00" y2="434.00" stroke="#555" stroke-width="1.00" stroke-opacity="1.000"/>
<line x1="54.00" y1="434.00" x2="392.00" y2="434.00" stroke="#ddd" stroke-width="1.00" stroke-opacity="1.000"/>
<text x="46.00" y="438.00" text-anchor="end" class="small">0.000</text>
<line x1="54.00" y1="396.50" x2="392.00" y2="396.50" stroke="#ddd" stroke-width="1.00" stroke-opacity="1.000"/>
<text x="46.00" y="400.50" text-anchor="end" class="small">0.12</text>
<line x1="54.00" y1="359.00" x2="392.00" y2="359.00" stroke="#ddd" stroke-width="1.00" stroke-opacity="1.000"/>
<text x="46.00" y="363.00" text-anchor="end" class="small">0.25</text>
<line x1="54.00" y1="321.50" x2="392.00" y2="321.50" stroke="#ddd" stroke-width="1.00" stroke-opacity="1.000"/>
<text x="46.00" y="325.50" text-anchor="end" class="small">0.38</text>
<line x1="54.00" y1="284.00" x2="392.00" y2="284.00" stroke="#ddd" stroke-width="1.00" stroke-opacity="1.000"/>
<text x="46.00" y="288.00" text-anchor="end" class="small">0.50</text>
<text x="20.00" y="359.00" text-anchor="middle" class="label" transform="rotate(-90.0 20.00 359.00)">fraction</text>
<text x="54.00" y="266.00" text-anchor="start" class="label">pick_up_object</text>
<line x1="96.25" y1="414.00" x2="96.25" y2="334.00" stroke="#4c78a8" stroke-width="1.60" stroke-opacity="1.000"/>
<rect x="77.24" y="379.45" width="38.02" height="17.05" fill="#4c78a8" stroke="#4c78a8" fill-opacity="0.220"/>
<line x1="77.24" y1="389.00" x2="115.26" y2="389.00" stroke="#4c78a8" stroke-width="1.60" stroke-opacity="1.000"/>
<text x="96.25" y="452.00" text-anchor="middle" class="small">base</text>
<line x1="180.75" y1="416.35" x2="180.75" y2="314.00" stroke="#f58518" stroke-width="1.60" stroke-opacity="1.000"/>
<rect x="161.74" y="381.06" width="38.02" height="15.44" fill="#f58518" stroke="#f58518" fill-opacity="0.220"/>
<line x1="161.74" y1="391.14" x2="199.76" y2="391.14" stroke="#f58518" stroke-width="1.60" stroke-opacity="1.000"/>
<text x="180.75" y="452.00" text-anchor="middle" class="small">high temp</text>
<line x1="265.25" y1="417.33" x2="265.25" y2="314.00" stroke="#54a24b" stroke-width="1.60" stroke-opacity="1.000"/>
<rect x="246.24" y="379.45" width="38.02" height="17.05" fill="#54a24b" stroke="#54a24b" fill-opacity="0.220"/>
<line x1="246.24" y1="389.00" x2="284.26" y2="389.00" stroke="#54a24b" stroke-width="1.60" stroke-opacity="1.000"/>
<text x="265.25" y="452.00" text-anchor="middle" class="small">random</text>
<line x1="349.75" y1="412.57" x2="349.75" y2="314.00" stroke="#b279a2" stroke-width="1.60" stroke-opacity="1.000"/>
<rect x="330.74" y="379.45" width="38.02" height="14.55" fill="#b279a2" stroke="#b279a2" fill-opacity="0.220"/>
<line x1="330.74" y1="387.85" x2="368.76" y2="387.85" stroke="#b279a2" stroke-width="1.60" stroke-opacity="1.000"/>
<text x="349.75" y="452.00" text-anchor="middle" class="small">verbalized</text>
<line x1="484.00" y1="284.00" x2="484.00" y2="434.00" stroke="#555" stroke-width="1.00" stroke-opacity="1.000"/>
<line x1="484.00" y1="434.00" x2="822.00" y2="434.00" stroke="#555" stroke-width="1.00" stroke-opacity="1.000"/>
<line x1="484.00" y1="434.00" x2="822.00" y2="434.00" stroke="#ddd" stroke-width="1.00" stroke-opacity="1.000"/>
<text x="476.00" y="438.00" text-anchor="end" class="small">0.000</text>
<line x1="484.00" y1="396.50" x2="822.00" y2="396.50" stroke="#ddd" stroke-width="1.00" stroke-opacity="1.000"/>
<text x="476.00" y="400.50" text-anchor="end" class="small">0.075</text>
<line x1="484.00" y1="359.00" x2="822.00" y2="359.00" stroke="#ddd" stroke-width="1.00" stroke-opacity="1.000"/>
<text x="476.00" y="363.00" text-anchor="end" class="small">0.15</text>
<line x1="484.00" y1="321.50" x2="822.00" y2="321.50" stroke="#ddd" stroke-width="1.00" stroke-opacity="1.000"/>
<text x="476.00" y="325.50" text-anchor="end" class="small">0.23</text>
<line x1="484.00" y1="284.00" x2="822.00" y2="284.00" stroke="#ddd" stroke-width="1.00" stroke-opacity="1.000"/>
<text x="476.00" y="288.00" text-anchor="end" class="small">0.30</text>
<text x="20.00" y="359.00" text-anchor="middle" class="label" transform="rotate(-90.0 20.00 359.00)">fraction</text>
<text x="484.00" y="266.00" text-anchor="start" class="label">give_space</text>
<line x1="526.25" y1="434.00" x2="526.25" y2="309.00" stroke="#4c78a8" stroke-width="1.60" stroke-opacity="1.000"/>
<rect x="507.24" y="371.50" width="38.02" height="24.04" fill="#4c78a8" stroke="#4c78a8" fill-opacity="0.220"/>
<line x1="507.24" y1="384.00" x2="545.26" y2="384.00" stroke="#4c78a8" stroke-width="1.60" stroke-opacity="1.000"/>
<text x="526.25" y="452.00" text-anchor="middle" class="small">base</text>
<line x1="610.75" y1="434.00" x2="610.75" y2="314.00" stroke="#f58518" stroke-width="1.60" stroke-opacity="1.000"/>
<rect x="591.74" y="371.50" width="38.02" height="24.04" fill="#f58518" stroke="#f58518" fill-opacity="0.220"/>
<line x1="591.74" y1="384.00" x2="629.76" y2="384.00" stroke="#f58518" stroke-width="1.60" stroke-opacity="1.000"/>
<text x="610.75" y="452.00" text-anchor="middle" class="small">high temp</text>
<line x1="695.25" y1="434.00" x2="695.25" y2="316.35" stroke="#54a24b" stroke-width="1.60" stroke-opacity="1.000"/>
<rect x="676.24" y="371.50" width="38.02" height="26.79" fill="#54a24b" stroke="#54a24b" fill-opacity="0.220"/>
<line x1="676.24" y1="384.00" x2="714.26" y2="384.00" stroke="#54a24b" stroke-width="1.60" stroke-opacity="1.000"/>
<text x="695.25" y="452.00" text-anchor="middle" class="small">random</text>
<line x1="779.75" y1="434.00" x2="779.75" y2="316.35" stroke="#b279a2" stroke-width="1.60" stroke-opacity="1.000"/>
<rect x="760.74" y="371.50" width="38.02" height="26.79" fill="#b279a2" stroke="#b279a2" fill-opacity="0.220"/>
<line x1="760.74" y1="384.00" x2="798.76" y2="384.00" stroke="#b279a2" stroke-width="1.60" stroke-opacity="1.000"/>
<text x="779.75" y="452.00" text-anchor="middle" class="small">verbalized</text>
<line x1="54.00" y1="504.00" x2="54.00" y2="654.00" stroke="#555" stroke-width="1.00" stroke-opacity="1.000"/>
<line x1="54.00" y1="654.00" x2="392.00" y2="654.00" stroke="#555" stroke-width="1.00" stroke-opacity="1.000"/>
<line x1="54.00" y1="654.00" x2="392.00" y2="654.00" stroke="#ddd" stroke-width="1.00" stroke-opacity="1.000"/>
<text x="46.00" y="658.00" text-anchor="end" class="small">0.000</text>
<line x1="54.00" y1="616.50" x2="392.00" y2="616.50" stroke="#ddd" stroke-width="1.00" stroke-opacity="1.000"/>
<text x="46.00" y="620.50" text-anchor="end" class="small">0.10</text>
<line x1="54.00" y1="579.00" x2="392.00" y2="579.00" stroke="#ddd" stroke-width="1.00" stroke-opacity="1.000"/>
<text x="46.00" y="583.00" text-anchor="end" class="small">0.20</text>
<line x1="54.00" y1="541.50" x2="392.00" y2="541.50" stroke="#ddd" stroke-width="1.00" stroke-opacity="1.000"/>
<text x="46.00" y="545.50" text-anchor="end" class="small">0.30</text>
<line x1="54.00" y1="504.00" x2="392.00" y2="504.00" stroke="#ddd" stroke-width="1.00" stroke-opacity="1.000"/>
<text x="46.00" y="508.00" text-anchor="end" class="small">0.40</text>
<text x="20.00" y="579.00" text-anchor="middle" class="label" transform="rotate(-90.0 20.00 579.00)">fraction</text>
<text x="54.00" y="486.00" text-anchor="start" class="label">place_in_receptacle</text>
<line x1="96.25" y1="654.00" x2="96.25" y2="541.50" stroke="#4c78a8" stroke-width="1.60" stroke-opacity="1.000"/>
<rect x="77.24" y="616.50" width="38.02" height="37.50" fill="#4c78a8" stroke="#4c78a8" fill-opacity="0.220"/>
<line x1="77.24" y1="654.00" x2="115.26" y2="654.00" stroke="#4c78a8" stroke-width="1.60" stroke-opacity="1.000"/>
<text x="96.25" y="672.00" text-anchor="middle" class="small">base</text>
<line x1="180.75" y1="654.00" x2="180.75" y2="541.50" stroke="#f58518" stroke-width="1.60" stroke-opacity="1.000"/>
<rect x="161.74" y="618.29" width="38.02" height="35.71" fill="#f58518" stroke="#f58518" fill-opacity="0.220"/>
<line x1="161.74" y1="654.00" x2="199.76" y2="654.00" stroke="#f58518" stroke-width="1.60" stroke-opacity="1.000"/>
<text x="180.75" y="672.00" text-anchor="middle" class="small">high temp</text>
<line x1="265.25" y1="654.00" x2="265.25" y2="529.00" stroke="#54a24b" stroke-width="1.60" stroke-opacity="1.000"/>
<rect x="246.24" y="616.50" width="38.02" height="37.50" fill="#54a24b" stroke="#54a24b" fill-opacity="0.220"/>
<line x1="246.24" y1="654.00" x2="284.26" y2="654.00" stroke="#54a24b" stroke-width="1.60" stroke-opacity="1.000"/>
<text x="265.25" y="672.00" text-anchor="middle" class="small">random</text>
<line x1="349.75" y1="654.00" x2="349.75" y2="529.00" stroke="#b279a2" stroke-width="1.60" stroke-opacity="1.000"/>
<rect x="330.74" y="616.50" width="38.02" height="37.50" fill="#b279a2" stroke="#b279a2" fill-opacity="0.220"/>
<line x1="330.74" y1="654.00" x2="368.76" y2="654.00" stroke="#b279a2" stroke-width="1.60" stroke-opacity="1.000"/>
<text x="349.75" y="672.00" text-anchor="middle" class="small">verbalized</text>
<line x1="484.00" y1="504.00" x2="484.00" y2="654.00" stroke="#555" stroke-width="1.00" stroke-opacity="1.000"/>
<line x1="484.00" y1="654.00" x2="822.00" y2="654.00" stroke="#555" stroke-width="1.00" stroke-opacity="1.000"/>
<line x1="484.00" y1="654.00" x2="822.00" y2="654.00" stroke="#ddd" stroke-width="1.00" stroke-opacity="1.000"/>
<text x="476.00" y="658.00" text-anchor="end" class="small">0.000</text>
<line x1="484.00" y1="616.50" x2="822.00" y2="616.50" stroke="#ddd" stroke-width="1.00" stroke-opacity="1.000"/>
<text x="476.00" y="620.50" text-anchor="end" class="small">0.12</text>
<line x1="484.00" y1="579.00" x2="822.00" y2="579.00" stroke="#ddd" stroke-width="1.00" stroke-opacity="1.000"/>
<text x="476.00" y="583.00" text-anchor="end" class="small">0.25</text>
<line x1="484.00" y1="541.50" x2="822.00" y2="541.50" stroke="#ddd" stroke-width="1.00" stroke-opacity="1.000"/>
<text x="476.00" y="545.50" text-anchor="end" class="small">0.38</text>
<line x1="484.00" y1="504.00" x2="822.00" y2="504.00" stroke="#ddd" stroke-width="1.00" stroke-opacity="1.000"/>
<text x="476.00" y="508.00" text-anchor="end" class="small">0.50</text>
<text x="20.00" y="579.00" text-anchor="middle" class="label" transform="rotate(-90.0 20.00 579.00)">fraction</text>
<text x="484.00" y="486.00" text-anchor="start" class="label">place_on_object</text>
<line x1="526.25" y1="654.00" x2="526.25" y2="554.00" stroke="#4c78a8" stroke-width="1.60" stroke-opacity="1.000"/>
<rect x="507.24" y="626.73" width="38.02" height="27.27" fill="#4c78a8" stroke="#4c78a8" fill-opacity="0.220"/>
<line x1="507.24" y1="654.00" x2="545.26" y2="654.00" stroke="#4c78a8" stroke-width="1.60" stroke-opacity="1.000"/>
<text x="526.25" y="672.00" text-anchor="middle" class="small">base</text>
<line x1="610.75" y1="654.00" x2="610.75" y2="534.00" stroke="#f58518" stroke-width="1.60" stroke-opacity="1.000"/>
<rect x="591.74" y="626.73" width="38.02" height="27.27" fill="#f58518" stroke="#f58518" fill-opacity="0.220"/>
<line x1="591.74" y1="654.00" x2="629.76" y2="654.00" stroke="#f58518" stroke-width="1.60" stroke-opacity="1.000"/>
<text x="610.75" y="672.00" text-anchor="middle" class="small">high temp</text>
<line x1="695.25" y1="654.00" x2="695.25" y2="534.00" stroke="#54a24b" stroke-width="1.60" stroke-opacity="1.000"/>
<rect x="676.24" y="625.43" width="38.02" height="28.57" fill="#54a24b" stroke="#54a24b" fill-opacity="0.220"/>
<line x1="676.24" y1="654.00" x2="714.26" y2="654.00" stroke="#54a24b" stroke-width="1.60" stroke-opacity="1.000"/>
<text x="695.25" y="672.00" text-anchor="middle" class="small">random</text>
<line x1="779.75" y1="654.00" x2="779.75" y2="534.00" stroke="#b279a2" stroke-width="1.60" stroke-opacity="1.000"/>
<rect x="760.74" y="626.73" width="38.02" height="27.27" fill="#b279a2" stroke="#b279a2" fill-opacity="0.220"/>
<line x1="760.74" y1="654.00" x2="798.76" y2="654.00" stroke="#b279a2" stroke-width="1.60" stroke-opacity="1.000"/>
<text x="779.75" y="672.00" text-anchor="middle" class="small">verbalized</text>
<line x1="54.00" y1="724.00" x2="54.00" y2="874.00" stroke="#555" stroke-width="1.00" stroke-opacity="1.000"/>
<line x1="54.00" y1="874.00" x2="392.00" y2="874.00" stroke="#555" stroke-width="1.00" stroke-opacity="1.000"/>
<line x1="54.00" y1="874.00" x2="392.00" y2="874.00" stroke="#ddd" stroke-width="1.00" stroke-opacity="1.000"/>
<text x="46.00" y="878.00" text-anchor="end" class="small">0.000</text>
<line x1="54.00" y1="836.50" x2="392.00" y2="836.50" stroke="#ddd" stroke-width="1.00" stroke-opacity="1.000"/>
<text x="46.00" y="840.50" text-anchor="end" class="small">0.10</text>
<line x1="54.00" y1="799.00" x2="392.00" y2="799.00" stroke="#ddd" stroke-width="1.00" stroke-opacity="1.000"/>
<text x="46.00" y="803.00" text-anchor="end" class="small">0.20</text>
<line x1="54.00" y1="761.50" x2="392.00" y2="761.50" stroke="#ddd" stroke-width="1.00" stroke-opacity="1.000"/>
<text x="46.00" y="765.50" text-anchor="end" class="small">0.30</text>
<line x1="54.00" y1="724.00" x2="392.00" y2="724.00" stroke="#ddd" stroke-width="1.00" stroke-opacity="1.000"/>
<text x="46.00" y="728.00" text-anchor="end" class="small">0.40</text>
<text x="20.00" y="799.00" text-anchor="middle" class="label" transform="rotate(-90.0 20.00 799.00)">fraction</text>
<text x="54.00" y="706.00" text-anchor="start" class="label">place_next_to</text>
<line x1="96.25" y1="874.00" x2="96.25" y2="790.67" stroke="#4c78a8" stroke-width="1.60" stroke-opacity="1.000"/>
<rect x="77.24" y="836.50" width="38.02" height="37.50" fill="#4c78a8" stroke="#4c78a8" fill-opacity="0.220"/>
<line x1="77.24" y1="874.00" x2="115.26" y2="874.00" stroke="#4c78a8" stroke-width="1.60" stroke-opacity="1.000"/>
<text x="96.25" y="892.00" text-anchor="middle" class="small">base</text>
<line x1="180.75" y1="874.00" x2="180.75" y2="766.86" stroke="#f58518" stroke-width="1.60" stroke-opacity="1.000"/>
<rect x="161.74" y="836.50" width="38.02" height="37.50" fill="#f58518" stroke="#f58518" fill-opacity="0.220"/>
<line x1="161.74" y1="874.00" x2="199.76" y2="874.00" stroke="#f58518" stroke-width="1.60" stroke-opacity="1.000"/>
<text x="180.75" y="892.00" text-anchor="middle" class="small">high temp</text>
<line x1="265.25" y1="874.00" x2="265.25" y2="766.86" stroke="#54a24b" stroke-width="1.60" stroke-opacity="1.000"/>
<rect x="246.24" y="836.50" width="38.02" height="37.50" fill="#54a24b" stroke="#54a24b" fill-opacity="0.220"/>
<line x1="246.24" y1="874.00" x2="284.26" y2="874.00" stroke="#54a24b" stroke-width="1.60" stroke-opacity="1.000"/>
<text x="265.25" y="892.00" text-anchor="middle" class="small">random</text>
<line x1="349.75" y1="874.00" x2="349.75" y2="766.86" stroke="#b279a2" stroke-width="1.60" stroke-opacity="1.000"/>
<rect x="330.74" y="839.91" width="38.02" height="34.09" fill="#b279a2" stroke="#b279a2" fill-opacity="0.220"/>
<line x1="330.74" y1="874.00" x2="368.76" y2="874.00" stroke="#b279a2" stroke-width="1.60" stroke-opacity="1.000"/>
<text x="349.75" y="892.00" text-anchor="middle" class="small">verbalized</text>
<line x1="484.00" y1="724.00" x2="484.00" y2="874.00" stroke="#555" stroke-width="1.00" stroke-opacity="1.000"/>
<line x1="484.00" y1="874.00" x2="822.00" y2="874.00" stroke="#555" stroke-width="1.00" stroke-opacity="1.000"/>
<line x1="484.00" y1="874.00" x2="822.00" y2="874.00" stroke="#ddd" stroke-width="1.00" stroke-opacity="1.000"/>
<text x="476.00" y="878.00" text-anchor="end" class="small">0.000</text>
<line x1="484.00" y1="836.50" x2="822.00" y2="836.50" stroke="#ddd" stroke-width="1.00" stroke-opacity="1.000"/>
<text x="476.00" y="840.50" text-anchor="end" class="small">0.050</text>
<line x1="484.00" y1="799.00" x2="822.00" y2="799.00" stroke="#ddd" stroke-width="1.00" stroke-opacity="1.000"/>
<text x="476.00" y="803.00" text-anchor="end" class="small">0.10</text>
<line x1="484.00" y1="761.50" x2="822.00" y2="761.50" stroke="#ddd" stroke-width="1.00" stroke-opacity="1.000"/>
<text x="476.00" y="765.50" text-anchor="end" class="small">0.15</text>
<line x1="484.00" y1="724.00" x2="822.00" y2="724.00" stroke="#ddd" stroke-width="1.00" stroke-opacity="1.000"/>
<text x="476.00" y="728.00" text-anchor="end" class="small">0.20</text>
<text x="20.00" y="799.00" text-anchor="middle" class="label" transform="rotate(-90.0 20.00 799.00)">fraction</text>
<text x="484.00" y="706.00" text-anchor="start" class="label">open_hinged_part</text>
<line x1="526.25" y1="874.00" x2="526.25" y2="758.62" stroke="#4c78a8" stroke-width="1.60" stroke-opacity="1.000"/>
<rect x="507.24" y="827.12" width="38.02" height="46.88" fill="#4c78a8" stroke="#4c78a8" fill-opacity="0.220"/>
<line x1="507.24" y1="874.00" x2="545.26" y2="874.00" stroke="#4c78a8" stroke-width="1.60" stroke-opacity="1.000"/>
<text x="526.25" y="892.00" text-anchor="middle" class="small">base</text>
<line x1="610.75" y1="874.00" x2="610.75" y2="758.62" stroke="#f58518" stroke-width="1.60" stroke-opacity="1.000"/>
<rect x="591.74" y="827.12" width="38.02" height="46.88" fill="#f58518" stroke="#f58518" fill-opacity="0.220"/>
<line x1="591.74" y1="874.00" x2="629.76" y2="874.00" stroke="#f58518" stroke-width="1.60" stroke-opacity="1.000"/>
<text x="610.75" y="892.00" text-anchor="middle" class="small">high temp</text>
<line x1="695.25" y1="874.00" x2="695.25" y2="758.62" stroke="#54a24b" stroke-width="1.60" stroke-opacity="1.000"/>
<rect x="676.24" y="827.12" width="38.02" height="46.88" fill="#54a24b" stroke="#54a24b" fill-opacity="0.220"/>
<line x1="676.24" y1="874.00" x2="714.26" y2="874.00" stroke="#54a24b" stroke-width="1.60" stroke-opacity="1.000"/>
<text x="695.25" y="892.00" text-anchor="middle" class="small">random</text>
<line x1="779.75" y1="874.00" x2="779.75" y2="758.62" stroke="#b279a2" stroke-width="1.60" stroke-opacity="1.000"/>
<rect x="760.74" y="827.12" width="38.02" height="46.88" fill="#b279a2" stroke="#b279a2" fill-opacity="0.220"/>
<line x1="760.74" y1="874.00" x2="798.76" y2="874.00" stroke="#b279a2" stroke-width="1.60" stroke-opacity="1.000"/>
<text x="779.75" y="892.00" text-anchor="middle" class="small">verbalized</text>
</svg>
