<svg xmlns="http://www.w3.org/2000/svg" width="1100" height="650" viewBox="0 0 1100 650">
<rect width="100%" height="100%" fill="white"/>
<style>text { font-family: Inter, Arial, sans-serif; }</style>
<text x="70" y="65" font-size="26" font-weight="700" text-anchor="start" fill="#24313D">Verified task specs by RoboCasa phase</text>
<text x="70" y="96" font-size="16" font-weight="400" text-anchor="start" fill="#586674">All 53 tasks in the seeded 43-trained / 10-held-out split</text>
<text x="30" y="345.0" font-size="15" text-anchor="middle" fill="#586674" transform="rotate(-90 30 345.0)">Number of task specs</text>
<line x1="105" y1="535.0" x2="1035" y2="535.0" stroke="#DCE2E8" stroke-width="1"/>
<text x="89" y="540.0" font-size="14" font-weight="400" text-anchor="end" fill="#586674">0</text>
<line x1="105" y1="471.7" x2="1035" y2="471.7" stroke="#DCE2E8" stroke-width="1"/>
<text x="89" y="476.6666666666667" font-size="14" font-weight="400" text-anchor="end" fill="#586674">5</text>
<line x1="105" y1="408.3" x2="1035" y2="408.3" stroke="#DCE2E8" stroke-width="1"/>
<text x="89" y="413.3333333333333" font-size="14" font-weight="400" text-anchor="end" fill="#586674">10</text>
<line x1="105" y1="345.0" x2="1035" y2="345.0" stroke="#DCE2E8" stroke-width="1"/>
<text x="89" y="350.0" font-size="14" font-weight="400" text-anchor="end" fill="#586674">15</text>
<line x1="105" y1="281.7" x2="1035" y2="281.7" stroke="#DCE2E8" stroke-width="1"/>
<text x="89" y="286.66666666666663" font-size="14" font-weight="400" text-anchor="end" fill="#586674">20</text>
<line x1="105" y1="218.3" x2="1035" y2="218.3" stroke="#DCE2E8" stroke-width="1"/>
<text x="89" y="223.33333333333331" font-size="14" font-weight="400" text-anchor="end" fill="#586674">25</text>
<line x1="105" y1="155.0" x2="1035" y2="155.0" stroke="#DCE2E8" stroke-width="1"/>
<text x="89" y="160.0" font-size="14" font-weight="400" text-anchor="end" fill="#586674">30</text>
<line x1="105" y1="535" x2="1035" y2="535" stroke="#AEB8C2" stroke-width="1.2"/>
<rect x="158.8" y="535.0" width="125" height="0.0" rx="5" fill="#3266A8"/>
<text x="221.25" y="523.0" font-size="19" font-weight="700" text-anchor="middle" fill="#24313D">0</text>
<text x="221.25" y="569" font-size="17" font-weight="700" text-anchor="middle" fill="#24313D">Phase 1</text>
<text x="221.25" y="592" font-size="15" font-weight="400" text-anchor="middle" fill="#586674">1 stage</text>
<rect x="391.2" y="357.7" width="125" height="177.3" rx="5" fill="#3266A8"/>
<text x="453.75" y="345.66666666666663" font-size="19" font-weight="700" text-anchor="middle" fill="#24313D">14</text>
<text x="453.75" y="569" font-size="17" font-weight="700" text-anchor="middle" fill="#24313D">Phase 2</text>
<text x="453.75" y="592" font-size="15" font-weight="400" text-anchor="middle" fill="#586674">2–3 stages</text>
<rect x="623.8" y="357.7" width="125" height="177.3" rx="5" fill="#3266A8"/>
<text x="686.25" y="345.66666666666663" font-size="19" font-weight="700" text-anchor="middle" fill="#24313D">14</text>
<text x="686.25" y="569" font-size="17" font-weight="700" text-anchor="middle" fill="#24313D">Phase 3</text>
<text x="686.25" y="592" font-size="15" font-weight="400" text-anchor="middle" fill="#586674">4–5 stages</text>
<rect x="856.2" y="218.3" width="125" height="316.7" rx="5" fill="#3266A8"/>
<text x="918.75" y="206.33333333333331" font-size="19" font-weight="700" text-anchor="middle" fill="#24313D">25</text>
<text x="918.75" y="569" font-size="17" font-weight="700" text-anchor="middle" fill="#24313D">Phase 4</text>
<text x="918.75" y="592" font-size="15" font-weight="400" text-anchor="middle" fill="#586674">6+ stages</text>
</svg>